<svg width="479" height="165" viewBox="0 0 479 165" fill="none" xmlns="http://www.w3.org/2000/svg">
<circle cx="99.6226" cy="50.8113" r="13.2075" fill="url(#paint0_linear_106_38219)"/>
<path d="M126.038 88.7829C126.038 96.989 126.038 103.641 99.6226 103.641C73.2075 103.641 73.2075 96.989 73.2075 88.7829C73.2075 80.5768 85.0339 73.9244 99.6226 73.9244C114.211 73.9244 126.038 80.5768 126.038 88.7829Z" fill="url(#paint1_linear_106_38219)"/>
<g filter="url(#filter0_ddi_106_38219)">
<circle cx="100.375" cy="120.541" r="19.9791" transform="rotate(10.0137 100.375 120.541)" fill="#27A25D"/>
<circle cx="100.375" cy="120.541" r="21.2646" transform="rotate(10.0137 100.375 120.541)" stroke="white" stroke-width="2.57111"/>
</g>
<path d="M92.2412 119.801L97.7158 128.994C97.9132 129.325 98.3869 129.342 98.6075 129.026L110.193 112.409" stroke="white" stroke-width="3.21389" stroke-linecap="round"/>
<g clip-path="url(#clip0_106_38219)">
<path d="M193 40.7832C193 40.3507 193.351 40 193.783 40H286.24C286.673 40 287.023 40.3507 287.023 40.7832V105.817C287.023 106.249 286.673 106.6 286.24 106.6H193.783C193.351 106.6 193 106.249 193 105.817V40.7832Z" fill="url(#paint2_linear_106_38219)"/>
<path d="M193 40.7832C193 40.3507 193.351 40 193.783 40H286.24C286.673 40 287.023 40.3507 287.023 40.7832V105.817C287.023 106.249 286.673 106.6 286.24 106.6H193.783C193.351 106.6 193 106.249 193 105.817V40.7832Z" stroke="white"/>
<rect x="215.321" y="54.2935" width="49.1466" height="6.85312" rx="1.56643" fill="white"/>
<rect x="203.084" y="72.8951" width="15.4685" height="2.15384" rx="0.783213" fill="white"/>
<rect x="203.084" y="77.3986" width="73.622" height="8.41954" rx="1.56643" fill="white"/>
<path d="M194.741 102.123H285.966V104.697C285.966 105.13 285.616 105.481 285.183 105.481H195.524C195.092 105.481 194.741 105.13 194.741 104.697V102.123Z" fill="white"/>
<path d="M193.871 42.4286C193.871 41.4669 194.65 40.6873 195.612 40.6873H284.423C285.385 40.6873 286.164 41.4669 286.164 42.4286V45.9114H193.871V42.4286Z" fill="white"/>
<rect x="196.917" y="42.2388" width="2.74056" height="1.95755" rx="0.783213" fill="#E4E4E7"/>
<rect x="200.247" y="42.2388" width="2.74056" height="1.95755" rx="0.783213" fill="#E4E4E7"/>
<rect x="205.029" y="42.2388" width="78.3213" height="1.95803" rx="0.783213" fill="#E4E4E7"/>
</g>
<rect x="385.791" y="50.8006" width="40.7777" height="51.0385" rx="2.75121" fill="white" stroke="white" stroke-width="0.906928"/>
<rect x="383.867" y="64.268" width="44.6255" height="10.6365" rx="2.75121" fill="url(#paint3_linear_106_38219)" stroke="white" stroke-width="0.906928"/>
<rect x="383.867" y="77.7354" width="44.6255" height="10.6365" rx="2.75121" fill="url(#paint4_linear_106_38219)" stroke="white" stroke-width="0.906928"/>
<rect x="383.867" y="91.2025" width="44.6255" height="10.6365" rx="2.75121" fill="url(#paint5_linear_106_38219)" stroke="white" stroke-width="0.906928"/>
<rect x="383.867" y="50.8008" width="44.6255" height="10.6365" rx="2.75121" fill="url(#paint6_linear_106_38219)" stroke="white" stroke-width="0.906928"/>
<mask id="path-21-inside-1_106_38219" fill="white">
<rect x="419.968" y="53.5536" width="2.56521" height="2.56521" rx="0.801169"/>
</mask>
<rect x="419.968" y="53.5536" width="2.56521" height="2.56521" rx="0.801169" fill="white" stroke="white" stroke-width="1.81386" mask="url(#path-21-inside-1_106_38219)"/>
<mask id="path-22-inside-2_106_38219" fill="white">
<rect x="419.968" y="67.0209" width="2.56521" height="2.56521" rx="0.801169"/>
</mask>
<rect x="419.968" y="67.0209" width="2.56521" height="2.56521" rx="0.801169" fill="white" stroke="white" stroke-width="1.81386" mask="url(#path-22-inside-2_106_38219)"/>
<mask id="path-23-inside-3_106_38219" fill="white">
<rect x="419.968" y="80.4883" width="2.56521" height="2.56521" rx="0.801169"/>
</mask>
<rect x="419.968" y="80.4883" width="2.56521" height="2.56521" rx="0.801169" fill="white" stroke="white" stroke-width="1.81386" mask="url(#path-23-inside-3_106_38219)"/>
<mask id="path-24-inside-4_106_38219" fill="white">
<rect x="419.968" y="93.9557" width="2.56521" height="2.56521" rx="0.801169"/>
</mask>
<rect x="419.968" y="93.9557" width="2.56521" height="2.56521" rx="0.801169" fill="white" stroke="white" stroke-width="1.81386" mask="url(#path-24-inside-4_106_38219)"/>
<path d="M360.09 34L332.772 56.8937H388.659L360.09 34Z" fill="url(#paint7_linear_106_38219)"/>
<path d="M390.968 107.202H330.367C328.507 107.202 327 105.695 327 103.835C327 101.976 328.507 100.469 330.367 100.469H390.968C392.827 100.469 394.334 101.976 394.334 103.835C394.334 105.695 392.827 107.202 390.968 107.202Z" fill="url(#paint8_linear_106_38219)"/>
<path d="M390.968 63.7234H330.367C328.507 63.7234 327 62.216 327 60.3566C327 58.4972 328.507 56.9899 330.367 56.9899H390.968C392.827 56.9899 394.334 58.4972 394.334 60.3566C394.334 62.216 392.827 63.7234 390.968 63.7234Z" fill="url(#paint9_linear_106_38219)"/>
<path d="M338.351 63.7234H345.084L345.084 93.7353H338.351L338.351 63.7234Z" fill="url(#paint10_linear_106_38219)"/>
<path d="M357.397 63.7234H364.13V93.7353H357.397L357.397 63.7234Z" fill="url(#paint11_linear_106_38219)"/>
<path d="M376.443 63.7234H383.176V93.7353H376.443L376.443 63.7234Z" fill="url(#paint12_linear_106_38219)"/>
<path d="M385.389 100.469H336.138C334.279 100.469 332.772 98.9614 332.772 97.102C332.772 95.2426 334.279 93.7353 336.138 93.7353H385.389C387.248 93.7353 388.755 95.2426 388.755 97.102C388.755 98.9614 387.248 100.469 385.389 100.469Z" fill="url(#paint13_linear_106_38219)"/>
<path d="M360.09 34L332.772 56.8937H388.659L360.09 34Z" stroke="white" stroke-width="1.31994"/>
<path d="M390.968 107.202H330.367C328.507 107.202 327 105.695 327 103.835C327 101.976 328.507 100.469 330.367 100.469H390.968C392.827 100.469 394.334 101.976 394.334 103.835C394.334 105.695 392.827 107.202 390.968 107.202Z" stroke="white" stroke-width="1.31994"/>
<path d="M390.968 63.7234H330.367C328.507 63.7234 327 62.216 327 60.3566C327 58.4972 328.507 56.9899 330.367 56.9899H390.968C392.827 56.9899 394.334 58.4972 394.334 60.3566C394.334 62.216 392.827 63.7234 390.968 63.7234Z" stroke="white" stroke-width="1.31994"/>
<path d="M338.351 63.7234H345.084L345.084 93.7353H338.351L338.351 63.7234Z" stroke="white" stroke-width="1.31994"/>
<path d="M357.397 63.7234H364.13V93.7353H357.397L357.397 63.7234Z" stroke="white" stroke-width="1.31994"/>
<path d="M376.443 63.7234H383.176V93.7353H376.443L376.443 63.7234Z" stroke="white" stroke-width="1.31994"/>
<path d="M385.389 100.469H336.138C334.279 100.469 332.772 98.9614 332.772 97.102C332.772 95.2426 334.279 93.7353 336.138 93.7353H385.389C387.248 93.7353 388.755 95.2426 388.755 97.102C388.755 98.9614 387.248 100.469 385.389 100.469Z" stroke="white" stroke-width="1.31994"/>
<g filter="url(#filter1_ddi_106_38219)">
<circle cx="378.001" cy="120.541" r="19.9791" transform="rotate(10.0137 378.001 120.541)" fill="#B0180A"/>
<circle cx="378.001" cy="120.541" r="21.2646" transform="rotate(10.0137 378.001 120.541)" stroke="white" stroke-width="2.57111"/>
</g>
<path d="M372.47 113.846L383.921 127.117M383.921 113.846L372.47 127.117" stroke="white" stroke-width="3.29067" stroke-linecap="round"/>
<path d="M267.542 121.129L349.817 121.129" stroke="#B0180A" stroke-width="1.92833" stroke-linecap="square"/>
<path d="M128.702 121.129L210.978 121.129" stroke="#27A25D" stroke-width="1.92833" stroke-linecap="square"/>
<g filter="url(#filter2_ddi_106_38219)">
<circle cx="240.149" cy="120.541" r="19.9791" transform="rotate(10.0137 240.149 120.541)" fill="#27A25D"/>
<circle cx="240.149" cy="120.541" r="21.2646" transform="rotate(10.0137 240.149 120.541)" stroke="white" stroke-width="2.57111"/>
</g>
<path d="M232.015 119.801L237.49 128.994C237.687 129.325 238.161 129.342 238.381 129.026L249.967 112.409" stroke="white" stroke-width="3.21389" stroke-linecap="round"/>
<defs>
<filter id="filter0_ddi_106_38219" x="63.0369" y="89.6312" width="74.6761" height="74.6757" filterUnits="userSpaceOnUse" color-interpolation-filters="sRGB">
<feFlood flood-opacity="0" result="BackgroundImageFix"/>
<feColorMatrix in="SourceAlpha" type="matrix" values="0 0 0 0 0 0 0 0 0 0 0 0 0 0 0 0 0 0 127 0" result="hardAlpha"/>
<feOffset dy="6.42777"/>
<feGaussianBlur stdDeviation="7.39194"/>
<feComposite in2="hardAlpha" operator="out"/>
<feColorMatrix type="matrix" values="0 0 0 0 0.152941 0 0 0 0 0.635294 0 0 0 0 0.364706 0 0 0 0.2 0"/>
<feBlend mode="normal" in2="BackgroundImageFix" result="effect1_dropShadow_106_38219"/>
<feColorMatrix in="SourceAlpha" type="matrix" values="0 0 0 0 0 0 0 0 0 0 0 0 0 0 0 0 0 0 127 0" result="hardAlpha"/>
<feOffset dy="2.57111"/>
<feGaussianBlur stdDeviation="3.40672"/>
<feComposite in2="hardAlpha" operator="out"/>
<feColorMatrix type="matrix" values="0 0 0 0 0 0 0 0 0 0 0 0 0 0 0 0 0 0 0.12 0"/>
<feBlend mode="normal" in2="effect1_dropShadow_106_38219" result="effect2_dropShadow_106_38219"/>
<feBlend mode="normal" in="SourceGraphic" in2="effect2_dropShadow_106_38219" result="shape"/>
<feColorMatrix in="SourceAlpha" type="matrix" values="0 0 0 0 0 0 0 0 0 0 0 0 0 0 0 0 0 0 127 0" result="hardAlpha"/>
<feOffset dy="-3.85666"/>
<feGaussianBlur stdDeviation="2.24972"/>
<feComposite in2="hardAlpha" operator="arithmetic" k2="-1" k3="1"/>
<feColorMatrix type="matrix" values="0 0 0 0 0.188363 0 0 0 0 0.188363 0 0 0 0 0.188363 0 0 0 0.2 0"/>
<feBlend mode="normal" in2="shape" result="effect3_innerShadow_106_38219"/>
</filter>
<filter id="filter1_ddi_106_38219" x="340.663" y="89.6311" width="74.6761" height="74.6757" filterUnits="userSpaceOnUse" color-interpolation-filters="sRGB">
<feFlood flood-opacity="0" result="BackgroundImageFix"/>
<feColorMatrix in="SourceAlpha" type="matrix" values="0 0 0 0 0 0 0 0 0 0 0 0 0 0 0 0 0 0 127 0" result="hardAlpha"/>
<feOffset dy="6.42777"/>
<feGaussianBlur stdDeviation="7.39194"/>
<feComposite in2="hardAlpha" operator="out"/>
<feColorMatrix type="matrix" values="0 0 0 0 0.768627 0 0 0 0 0.698039 0 0 0 0 0.141176 0 0 0 0.18 0"/>
<feBlend mode="normal" in2="BackgroundImageFix" result="effect1_dropShadow_106_38219"/>
<feColorMatrix in="SourceAlpha" type="matrix" values="0 0 0 0 0 0 0 0 0 0 0 0 0 0 0 0 0 0 127 0" result="hardAlpha"/>
<feOffset dy="2.57111"/>
<feGaussianBlur stdDeviation="3.40672"/>
<feComposite in2="hardAlpha" operator="out"/>
<feColorMatrix type="matrix" values="0 0 0 0 0 0 0 0 0 0 0 0 0 0 0 0 0 0 0.12 0"/>
<feBlend mode="normal" in2="effect1_dropShadow_106_38219" result="effect2_dropShadow_106_38219"/>
<feBlend mode="normal" in="SourceGraphic" in2="effect2_dropShadow_106_38219" result="shape"/>
<feColorMatrix in="SourceAlpha" type="matrix" values="0 0 0 0 0 0 0 0 0 0 0 0 0 0 0 0 0 0 127 0" result="hardAlpha"/>
<feOffset dy="-3.85666"/>
<feGaussianBlur stdDeviation="2.24972"/>
<feComposite in2="hardAlpha" operator="arithmetic" k2="-1" k3="1"/>
<feColorMatrix type="matrix" values="0 0 0 0 0.188363 0 0 0 0 0.188363 0 0 0 0 0.188363 0 0 0 0.2 0"/>
<feBlend mode="normal" in2="shape" result="effect3_innerShadow_106_38219"/>
</filter>
<filter id="filter2_ddi_106_38219" x="202.811" y="89.6312" width="74.6761" height="74.6757" filterUnits="userSpaceOnUse" color-interpolation-filters="sRGB">
<feFlood flood-opacity="0" result="BackgroundImageFix"/>
<feColorMatrix in="SourceAlpha" type="matrix" values="0 0 0 0 0 0 0 0 0 0 0 0 0 0 0 0 0 0 127 0" result="hardAlpha"/>
<feOffset dy="6.42777"/>
<feGaussianBlur stdDeviation="7.39194"/>
<feComposite in2="hardAlpha" operator="out"/>
<feColorMatrix type="matrix" values="0 0 0 0 0.152941 0 0 0 0 0.635294 0 0 0 0 0.364706 0 0 0 0.2 0"/>
<feBlend mode="normal" in2="BackgroundImageFix" result="effect1_dropShadow_106_38219"/>
<feColorMatrix in="SourceAlpha" type="matrix" values="0 0 0 0 0 0 0 0 0 0 0 0 0 0 0 0 0 0 127 0" result="hardAlpha"/>
<feOffset dy="2.57111"/>
<feGaussianBlur stdDeviation="3.40672"/>
<feComposite in2="hardAlpha" operator="out"/>
<feColorMatrix type="matrix" values="0 0 0 0 0 0 0 0 0 0 0 0 0 0 0 0 0 0 0.12 0"/>
<feBlend mode="normal" in2="effect1_dropShadow_106_38219" result="effect2_dropShadow_106_38219"/>
<feBlend mode="normal" in="SourceGraphic" in2="effect2_dropShadow_106_38219" result="shape"/>
<feColorMatrix in="SourceAlpha" type="matrix" values="0 0 0 0 0 0 0 0 0 0 0 0 0 0 0 0 0 0 127 0" result="hardAlpha"/>
<feOffset dy="-3.85666"/>
<feGaussianBlur stdDeviation="2.24972"/>
<feComposite in2="hardAlpha" operator="arithmetic" k2="-1" k3="1"/>
<feColorMatrix type="matrix" values="0 0 0 0 0.188363 0 0 0 0 0.188363 0 0 0 0 0.188363 0 0 0 0.2 0"/>
<feBlend mode="normal" in2="shape" result="effect3_innerShadow_106_38219"/>
</filter>
<linearGradient id="paint0_linear_106_38219" x1="113.687" y1="33.5812" x2="73.2512" y2="86.3992" gradientUnits="userSpaceOnUse">
<stop offset="0.297482" stop-color="#D4D4D8"/>
<stop offset="0.776744" stop-color="#C3CFFA"/>
</linearGradient>
<linearGradient id="paint1_linear_106_38219" x1="127.752" y1="69.399" x2="93.5152" y2="148.902" gradientUnits="userSpaceOnUse">
<stop offset="0.297482" stop-color="#D4D4D8"/>
<stop offset="0.776744" stop-color="#C3CFFA"/>
</linearGradient>
<linearGradient id="paint2_linear_106_38219" x1="290.075" y1="29.8579" x2="201.562" y2="193.08" gradientUnits="userSpaceOnUse">
<stop offset="0.297482" stop-color="#D4D4D8"/>
<stop offset="0.776744" stop-color="#C3CFFA"/>
</linearGradient>
<linearGradient id="paint3_linear_106_38219" x1="430.424" y1="62.0566" x2="423.576" y2="97.3374" gradientUnits="userSpaceOnUse">
<stop offset="0.297482" stop-color="#D4D4D8"/>
<stop offset="0.776744" stop-color="#C3CFFA"/>
</linearGradient>
<linearGradient id="paint4_linear_106_38219" x1="430.424" y1="75.5241" x2="423.576" y2="110.805" gradientUnits="userSpaceOnUse">
<stop offset="0.297482" stop-color="#D4D4D8"/>
<stop offset="0.776744" stop-color="#C3CFFA"/>
</linearGradient>
<linearGradient id="paint5_linear_106_38219" x1="430.424" y1="88.9912" x2="423.576" y2="124.272" gradientUnits="userSpaceOnUse">
<stop offset="0.297482" stop-color="#D4D4D8"/>
<stop offset="0.776744" stop-color="#C3CFFA"/>
</linearGradient>
<linearGradient id="paint6_linear_106_38219" x1="430.424" y1="48.5894" x2="423.576" y2="83.8702" gradientUnits="userSpaceOnUse">
<stop offset="0.297482" stop-color="#D4D4D8"/>
<stop offset="0.776744" stop-color="#C3CFFA"/>
</linearGradient>
<linearGradient id="paint7_linear_106_38219" x1="396.52" y1="22.8524" x2="282.369" y2="160.006" gradientUnits="userSpaceOnUse">
<stop offset="0.297482" stop-color="#D4D4D8"/>
<stop offset="0.776744" stop-color="#C3CFFA"/>
</linearGradient>
<linearGradient id="paint8_linear_106_38219" x1="396.52" y1="22.8524" x2="282.369" y2="160.006" gradientUnits="userSpaceOnUse">
<stop offset="0.297482" stop-color="#D4D4D8"/>
<stop offset="0.776744" stop-color="#C3CFFA"/>
</linearGradient>
<linearGradient id="paint9_linear_106_38219" x1="396.52" y1="22.8524" x2="282.369" y2="160.006" gradientUnits="userSpaceOnUse">
<stop offset="0.297482" stop-color="#D4D4D8"/>
<stop offset="0.776744" stop-color="#C3CFFA"/>
</linearGradient>
<linearGradient id="paint10_linear_106_38219" x1="396.52" y1="22.8524" x2="282.369" y2="160.006" gradientUnits="userSpaceOnUse">
<stop offset="0.297482" stop-color="#D4D4D8"/>
<stop offset="0.776744" stop-color="#C3CFFA"/>
</linearGradient>
<linearGradient id="paint11_linear_106_38219" x1="396.52" y1="22.8524" x2="282.369" y2="160.006" gradientUnits="userSpaceOnUse">
<stop offset="0.297482" stop-color="#D4D4D8"/>
<stop offset="0.776744" stop-color="#C3CFFA"/>
</linearGradient>
<linearGradient id="paint12_linear_106_38219" x1="396.52" y1="22.8524" x2="282.369" y2="160.006" gradientUnits="userSpaceOnUse">
<stop offset="0.297482" stop-color="#D4D4D8"/>
<stop offset="0.776744" stop-color="#C3CFFA"/>
</linearGradient>
<linearGradient id="paint13_linear_106_38219" x1="396.52" y1="22.8524" x2="282.369" y2="160.006" gradientUnits="userSpaceOnUse">
<stop offset="0.297482" stop-color="#D4D4D8"/>
<stop offset="0.776744" stop-color="#C3CFFA"/>
</linearGradient>
<clipPath id="clip0_106_38219">
<rect x="193" y="40" width="94.0234" height="66.5999" rx="2.23865" fill="white"/>
</clipPath>
</defs>
</svg>
