<svg width="479" height="165" viewBox="0 0 479 165" fill="none" xmlns="http://www.w3.org/2000/svg">
<circle cx="99.6226" cy="50.8113" r="13.2075" fill="url(#paint0_linear_106_38102)"/>
<path d="M126.038 88.7829C126.038 96.989 126.038 103.641 99.6226 103.641C73.2075 103.641 73.2075 96.989 73.2075 88.7829C73.2075 80.5768 85.0339 73.9244 99.6226 73.9244C114.211 73.9244 126.038 80.5768 126.038 88.7829Z" fill="url(#paint1_linear_106_38102)"/>
<g filter="url(#filter0_ddi_106_38102)">
<circle cx="100.375" cy="120.541" r="19.9791" transform="rotate(10.0137 100.375 120.541)" fill="#27A25D"/>
<circle cx="100.375" cy="120.541" r="21.2646" transform="rotate(10.0137 100.375 120.541)" stroke="white" stroke-width="2.57111"/>
</g>
<path d="M92.2407 119.801L97.7153 128.994C97.9127 129.325 98.3864 129.342 98.607 129.026L110.192 112.409" stroke="white" stroke-width="3.21389" stroke-linecap="round"/>
<g clip-path="url(#clip0_106_38102)">
<path d="M185 31.11C185 30.6132 185.403 30.2104 185.9 30.2104H292.087C292.584 30.2104 292.987 30.6132 292.987 31.11V105.801C292.987 106.298 292.584 106.701 292.087 106.701H185.9C185.403 106.701 185 106.298 185 105.801V31.11Z" fill="url(#paint2_linear_106_38102)"/>
<path d="M185 31.11C185 30.6132 185.403 30.2104 185.9 30.2104H292.087C292.584 30.2104 292.987 30.6132 292.987 31.11V105.801C292.987 106.298 292.584 106.701 292.087 106.701H185.9C185.403 106.701 185 106.298 185 105.801V31.11Z" stroke="white"/>
<rect x="210.637" y="46.6268" width="56.4452" height="7.87085" rx="1.79905" fill="white"/>
<rect x="196.582" y="67.9905" width="17.7656" height="2.4737" rx="0.899526" fill="white"/>
<rect x="196.582" y="73.1629" width="84.5554" height="9.6699" rx="1.79905" fill="white"/>
<path d="M186.286 101.559H291.058V104.516C291.058 105.013 290.656 105.416 290.159 105.416H187.185C186.688 105.416 186.286 105.013 186.286 104.516V101.559Z" fill="white"/>
<path d="M185 31.11C185 30.6132 185.403 30.2104 185.9 30.2104H292.087C292.584 30.2104 292.987 30.6132 292.987 31.11V37.281H185V31.11Z" fill="white"/>
<rect x="189.5" y="32.7816" width="3.14834" height="2.24881" rx="0.899526" fill="#E4E4E7"/>
<rect x="193.323" y="32.7816" width="3.14834" height="2.24881" rx="0.899526" fill="#E4E4E7"/>
<rect x="198.815" y="32.7816" width="89.9526" height="2.24881" rx="0.899526" fill="#E4E4E7"/>
</g>
<rect x="391.723" y="40.7543" width="53.1775" height="66.5585" rx="3.58781" fill="white" stroke="white" stroke-width="1.18271"/>
<rect x="389.213" y="58.3168" width="58.1954" height="13.8709" rx="3.58781" fill="url(#paint3_linear_106_38102)" stroke="white" stroke-width="1.18271"/>
<rect x="389.213" y="75.8793" width="58.1954" height="13.8709" rx="3.58781" fill="url(#paint4_linear_106_38102)" stroke="white" stroke-width="1.18271"/>
<rect x="389.213" y="93.4421" width="58.1954" height="13.8709" rx="3.58781" fill="url(#paint5_linear_106_38102)" stroke="white" stroke-width="1.18271"/>
<rect x="389.213" y="40.7544" width="58.1954" height="13.8709" rx="3.58781" fill="url(#paint6_linear_106_38102)" stroke="white" stroke-width="1.18271"/>
<mask id="path-21-inside-1_106_38102" fill="white">
<rect x="436.292" y="44.3444" width="3.34524" height="3.34524" rx="1.04479"/>
</mask>
<rect x="436.292" y="44.3444" width="3.34524" height="3.34524" rx="1.04479" fill="white" stroke="white" stroke-width="2.36542" mask="url(#path-21-inside-1_106_38102)"/>
<mask id="path-22-inside-2_106_38102" fill="white">
<rect x="436.292" y="61.9069" width="3.34524" height="3.34524" rx="1.04479"/>
</mask>
<rect x="436.292" y="61.9069" width="3.34524" height="3.34524" rx="1.04479" fill="white" stroke="white" stroke-width="2.36542" mask="url(#path-22-inside-2_106_38102)"/>
<mask id="path-23-inside-3_106_38102" fill="white">
<rect x="436.292" y="79.4697" width="3.34524" height="3.34524" rx="1.04479"/>
</mask>
<rect x="436.292" y="79.4697" width="3.34524" height="3.34524" rx="1.04479" fill="white" stroke="white" stroke-width="2.36542" mask="url(#path-23-inside-3_106_38102)"/>
<mask id="path-24-inside-4_106_38102" fill="white">
<rect x="436.292" y="97.0322" width="3.34524" height="3.34524" rx="1.04479"/>
</mask>
<rect x="436.292" y="97.0322" width="3.34524" height="3.34524" rx="1.04479" fill="white" stroke="white" stroke-width="2.36542" mask="url(#path-24-inside-4_106_38102)"/>
<path d="M358.206 18.8446L322.581 48.6999H395.463L358.206 18.8446Z" fill="url(#paint7_linear_106_38102)"/>
<path d="M398.473 114.306H319.445C317.02 114.306 315.054 112.341 315.054 109.916C315.054 107.491 317.02 105.525 319.445 105.525H398.473C400.898 105.525 402.864 107.491 402.864 109.916C402.864 112.341 400.898 114.306 398.473 114.306Z" fill="url(#paint8_linear_106_38102)"/>
<path d="M398.473 57.6064H319.445C317.02 57.6064 315.054 55.6407 315.054 53.2159C315.054 50.7911 317.02 48.8254 319.445 48.8254H398.473C400.898 48.8254 402.864 50.7911 402.864 53.2159C402.864 55.6407 400.898 57.6064 398.473 57.6064Z" fill="url(#paint9_linear_106_38102)"/>
<path d="M329.856 57.6064H338.637L338.637 96.7444H329.856L329.856 57.6064Z" fill="url(#paint10_linear_106_38102)"/>
<path d="M354.694 57.6064H363.475V96.7444H354.694L354.694 57.6064Z" fill="url(#paint11_linear_106_38102)"/>
<path d="M379.532 57.6064H388.313V96.7444H379.532L379.532 57.6064Z" fill="url(#paint12_linear_106_38102)"/>
<path d="M391.198 105.525H326.971C324.546 105.525 322.581 103.56 322.581 101.135C322.581 98.7101 324.546 96.7444 326.971 96.7444H391.198C393.623 96.7444 395.588 98.7101 395.588 101.135C395.588 103.56 393.623 105.525 391.198 105.525Z" fill="url(#paint13_linear_106_38102)"/>
<path d="M358.206 18.8446L322.581 48.6999H395.463L358.206 18.8446Z" stroke="white" stroke-width="1.72131"/>
<path d="M398.473 114.306H319.445C317.02 114.306 315.054 112.341 315.054 109.916C315.054 107.491 317.02 105.525 319.445 105.525H398.473C400.898 105.525 402.864 107.491 402.864 109.916C402.864 112.341 400.898 114.306 398.473 114.306Z" stroke="white" stroke-width="1.72131"/>
<path d="M398.473 57.6064H319.445C317.02 57.6064 315.054 55.6407 315.054 53.2159C315.054 50.7911 317.02 48.8254 319.445 48.8254H398.473C400.898 48.8254 402.864 50.7911 402.864 53.2159C402.864 55.6407 400.898 57.6064 398.473 57.6064Z" stroke="white" stroke-width="1.72131"/>
<path d="M329.856 57.6064H338.637L338.637 96.7444H329.856L329.856 57.6064Z" stroke="white" stroke-width="1.72131"/>
<path d="M354.694 57.6064H363.475V96.7444H354.694L354.694 57.6064Z" stroke="white" stroke-width="1.72131"/>
<path d="M379.532 57.6064H388.313V96.7444H379.532L379.532 57.6064Z" stroke="white" stroke-width="1.72131"/>
<path d="M391.198 105.525H326.971C324.546 105.525 322.581 103.56 322.581 101.135C322.581 98.7101 324.546 96.7444 326.971 96.7444H391.198C393.623 96.7444 395.588 98.7101 395.588 101.135C395.588 103.56 393.623 105.525 391.198 105.525Z" stroke="white" stroke-width="1.72131"/>
<g filter="url(#filter1_ddi_106_38102)">
<circle cx="378" cy="120.541" r="19.9791" transform="rotate(10.0137 378 120.541)" fill="#C4B224"/>
<circle cx="378" cy="120.541" r="21.2646" transform="rotate(10.0137 378 120.541)" stroke="white" stroke-width="2.57111"/>
</g>
<path d="M375.241 124.981L374.911 107.677H380.264L379.934 124.981H375.241ZM377.588 133.89C376.781 133.89 376.085 133.609 375.498 133.047C374.936 132.46 374.655 131.764 374.655 130.957C374.655 130.151 374.936 129.466 375.498 128.904C376.085 128.318 376.781 128.024 377.588 128.024C378.394 128.024 379.079 128.318 379.641 128.904C380.227 129.466 380.521 130.151 380.521 130.957C380.521 131.764 380.227 132.46 379.641 133.047C379.079 133.609 378.394 133.89 377.588 133.89Z" fill="white"/>
<path d="M267.542 121.129L349.817 121.129" stroke="#C4B224" stroke-width="1.92833" stroke-linecap="square"/>
<path d="M128.702 121.129L210.978 121.129" stroke="#27A25D" stroke-width="1.92833" stroke-linecap="square"/>
<g filter="url(#filter2_ddi_106_38102)">
<circle cx="240.149" cy="120.541" r="19.9791" transform="rotate(10.0137 240.149 120.541)" fill="#27A25D"/>
<circle cx="240.149" cy="120.541" r="21.2646" transform="rotate(10.0137 240.149 120.541)" stroke="white" stroke-width="2.57111"/>
</g>
<path d="M232.015 119.801L237.49 128.994C237.687 129.325 238.161 129.342 238.381 129.026L249.967 112.409" stroke="white" stroke-width="3.21389" stroke-linecap="round"/>
<defs>
<filter id="filter0_ddi_106_38102" x="63.0364" y="89.631" width="74.6761" height="74.6757" filterUnits="userSpaceOnUse" color-interpolation-filters="sRGB">
<feFlood flood-opacity="0" result="BackgroundImageFix"/>
<feColorMatrix in="SourceAlpha" type="matrix" values="0 0 0 0 0 0 0 0 0 0 0 0 0 0 0 0 0 0 127 0" result="hardAlpha"/>
<feOffset dy="6.42777"/>
<feGaussianBlur stdDeviation="7.39194"/>
<feComposite in2="hardAlpha" operator="out"/>
<feColorMatrix type="matrix" values="0 0 0 0 0.152941 0 0 0 0 0.635294 0 0 0 0 0.364706 0 0 0 0.2 0"/>
<feBlend mode="normal" in2="BackgroundImageFix" result="effect1_dropShadow_106_38102"/>
<feColorMatrix in="SourceAlpha" type="matrix" values="0 0 0 0 0 0 0 0 0 0 0 0 0 0 0 0 0 0 127 0" result="hardAlpha"/>
<feOffset dy="2.57111"/>
<feGaussianBlur stdDeviation="3.40672"/>
<feComposite in2="hardAlpha" operator="out"/>
<feColorMatrix type="matrix" values="0 0 0 0 0 0 0 0 0 0 0 0 0 0 0 0 0 0 0.12 0"/>
<feBlend mode="normal" in2="effect1_dropShadow_106_38102" result="effect2_dropShadow_106_38102"/>
<feBlend mode="normal" in="SourceGraphic" in2="effect2_dropShadow_106_38102" result="shape"/>
<feColorMatrix in="SourceAlpha" type="matrix" values="0 0 0 0 0 0 0 0 0 0 0 0 0 0 0 0 0 0 127 0" result="hardAlpha"/>
<feOffset dy="-3.85666"/>
<feGaussianBlur stdDeviation="2.24972"/>
<feComposite in2="hardAlpha" operator="arithmetic" k2="-1" k3="1"/>
<feColorMatrix type="matrix" values="0 0 0 0 0.188363 0 0 0 0 0.188363 0 0 0 0 0.188363 0 0 0 0.2 0"/>
<feBlend mode="normal" in2="shape" result="effect3_innerShadow_106_38102"/>
</filter>
<filter id="filter1_ddi_106_38102" x="340.662" y="89.6308" width="74.6761" height="74.6757" filterUnits="userSpaceOnUse" color-interpolation-filters="sRGB">
<feFlood flood-opacity="0" result="BackgroundImageFix"/>
<feColorMatrix in="SourceAlpha" type="matrix" values="0 0 0 0 0 0 0 0 0 0 0 0 0 0 0 0 0 0 127 0" result="hardAlpha"/>
<feOffset dy="6.42777"/>
<feGaussianBlur stdDeviation="7.39194"/>
<feComposite in2="hardAlpha" operator="out"/>
<feColorMatrix type="matrix" values="0 0 0 0 0.768627 0 0 0 0 0.698039 0 0 0 0 0.141176 0 0 0 0.18 0"/>
<feBlend mode="normal" in2="BackgroundImageFix" result="effect1_dropShadow_106_38102"/>
<feColorMatrix in="SourceAlpha" type="matrix" values="0 0 0 0 0 0 0 0 0 0 0 0 0 0 0 0 0 0 127 0" result="hardAlpha"/>
<feOffset dy="2.57111"/>
<feGaussianBlur stdDeviation="3.40672"/>
<feComposite in2="hardAlpha" operator="out"/>
<feColorMatrix type="matrix" values="0 0 0 0 0 0 0 0 0 0 0 0 0 0 0 0 0 0 0.12 0"/>
<feBlend mode="normal" in2="effect1_dropShadow_106_38102" result="effect2_dropShadow_106_38102"/>
<feBlend mode="normal" in="SourceGraphic" in2="effect2_dropShadow_106_38102" result="shape"/>
<feColorMatrix in="SourceAlpha" type="matrix" values="0 0 0 0 0 0 0 0 0 0 0 0 0 0 0 0 0 0 127 0" result="hardAlpha"/>
<feOffset dy="-3.85666"/>
<feGaussianBlur stdDeviation="2.24972"/>
<feComposite in2="hardAlpha" operator="arithmetic" k2="-1" k3="1"/>
<feColorMatrix type="matrix" values="0 0 0 0 0.188363 0 0 0 0 0.188363 0 0 0 0 0.188363 0 0 0 0.2 0"/>
<feBlend mode="normal" in2="shape" result="effect3_innerShadow_106_38102"/>
</filter>
<filter id="filter2_ddi_106_38102" x="202.811" y="89.631" width="74.6761" height="74.6757" filterUnits="userSpaceOnUse" color-interpolation-filters="sRGB">
<feFlood flood-opacity="0" result="BackgroundImageFix"/>
<feColorMatrix in="SourceAlpha" type="matrix" values="0 0 0 0 0 0 0 0 0 0 0 0 0 0 0 0 0 0 127 0" result="hardAlpha"/>
<feOffset dy="6.42777"/>
<feGaussianBlur stdDeviation="7.39194"/>
<feComposite in2="hardAlpha" operator="out"/>
<feColorMatrix type="matrix" values="0 0 0 0 0.152941 0 0 0 0 0.635294 0 0 0 0 0.364706 0 0 0 0.2 0"/>
<feBlend mode="normal" in2="BackgroundImageFix" result="effect1_dropShadow_106_38102"/>
<feColorMatrix in="SourceAlpha" type="matrix" values="0 0 0 0 0 0 0 0 0 0 0 0 0 0 0 0 0 0 127 0" result="hardAlpha"/>
<feOffset dy="2.57111"/>
<feGaussianBlur stdDeviation="3.40672"/>
<feComposite in2="hardAlpha" operator="out"/>
<feColorMatrix type="matrix" values="0 0 0 0 0 0 0 0 0 0 0 0 0 0 0 0 0 0 0.12 0"/>
<feBlend mode="normal" in2="effect1_dropShadow_106_38102" result="effect2_dropShadow_106_38102"/>
<feBlend mode="normal" in="SourceGraphic" in2="effect2_dropShadow_106_38102" result="shape"/>
<feColorMatrix in="SourceAlpha" type="matrix" values="0 0 0 0 0 0 0 0 0 0 0 0 0 0 0 0 0 0 127 0" result="hardAlpha"/>
<feOffset dy="-3.85666"/>
<feGaussianBlur stdDeviation="2.24972"/>
<feComposite in2="hardAlpha" operator="arithmetic" k2="-1" k3="1"/>
<feColorMatrix type="matrix" values="0 0 0 0 0.188363 0 0 0 0 0.188363 0 0 0 0 0.188363 0 0 0 0.2 0"/>
<feBlend mode="normal" in2="shape" result="effect3_innerShadow_106_38102"/>
</filter>
<linearGradient id="paint0_linear_106_38102" x1="113.687" y1="33.5812" x2="73.2512" y2="86.3992" gradientUnits="userSpaceOnUse">
<stop offset="0.297482" stop-color="#D4D4D8"/>
<stop offset="0.776744" stop-color="#C3CFFA"/>
</linearGradient>
<linearGradient id="paint1_linear_106_38102" x1="127.752" y1="69.399" x2="93.5152" y2="148.902" gradientUnits="userSpaceOnUse">
<stop offset="0.297482" stop-color="#D4D4D8"/>
<stop offset="0.776744" stop-color="#C3CFFA"/>
</linearGradient>
<linearGradient id="paint2_linear_106_38102" x1="296.491" y1="18.5621" x2="194.834" y2="206.024" gradientUnits="userSpaceOnUse">
<stop offset="0.297482" stop-color="#D4D4D8"/>
<stop offset="0.776744" stop-color="#C3CFFA"/>
</linearGradient>
<linearGradient id="paint3_linear_106_38102" x1="449.927" y1="55.433" x2="440.997" y2="101.442" gradientUnits="userSpaceOnUse">
<stop offset="0.297482" stop-color="#D4D4D8"/>
<stop offset="0.776744" stop-color="#C3CFFA"/>
</linearGradient>
<linearGradient id="paint4_linear_106_38102" x1="449.927" y1="72.9955" x2="440.997" y2="119.005" gradientUnits="userSpaceOnUse">
<stop offset="0.297482" stop-color="#D4D4D8"/>
<stop offset="0.776744" stop-color="#C3CFFA"/>
</linearGradient>
<linearGradient id="paint5_linear_106_38102" x1="449.927" y1="90.5583" x2="440.997" y2="136.567" gradientUnits="userSpaceOnUse">
<stop offset="0.297482" stop-color="#D4D4D8"/>
<stop offset="0.776744" stop-color="#C3CFFA"/>
</linearGradient>
<linearGradient id="paint6_linear_106_38102" x1="449.927" y1="37.8707" x2="440.997" y2="83.8797" gradientUnits="userSpaceOnUse">
<stop offset="0.297482" stop-color="#D4D4D8"/>
<stop offset="0.776744" stop-color="#C3CFFA"/>
</linearGradient>
<linearGradient id="paint7_linear_106_38102" x1="405.714" y1="4.30725" x2="256.851" y2="183.167" gradientUnits="userSpaceOnUse">
<stop offset="0.297482" stop-color="#D4D4D8"/>
<stop offset="0.776744" stop-color="#C3CFFA"/>
</linearGradient>
<linearGradient id="paint8_linear_106_38102" x1="405.714" y1="4.30725" x2="256.851" y2="183.167" gradientUnits="userSpaceOnUse">
<stop offset="0.297482" stop-color="#D4D4D8"/>
<stop offset="0.776744" stop-color="#C3CFFA"/>
</linearGradient>
<linearGradient id="paint9_linear_106_38102" x1="405.714" y1="4.30725" x2="256.851" y2="183.167" gradientUnits="userSpaceOnUse">
<stop offset="0.297482" stop-color="#D4D4D8"/>
<stop offset="0.776744" stop-color="#C3CFFA"/>
</linearGradient>
<linearGradient id="paint10_linear_106_38102" x1="405.714" y1="4.30725" x2="256.851" y2="183.167" gradientUnits="userSpaceOnUse">
<stop offset="0.297482" stop-color="#D4D4D8"/>
<stop offset="0.776744" stop-color="#C3CFFA"/>
</linearGradient>
<linearGradient id="paint11_linear_106_38102" x1="405.714" y1="4.30725" x2="256.851" y2="183.167" gradientUnits="userSpaceOnUse">
<stop offset="0.297482" stop-color="#D4D4D8"/>
<stop offset="0.776744" stop-color="#C3CFFA"/>
</linearGradient>
<linearGradient id="paint12_linear_106_38102" x1="405.714" y1="4.30725" x2="256.851" y2="183.167" gradientUnits="userSpaceOnUse">
<stop offset="0.297482" stop-color="#D4D4D8"/>
<stop offset="0.776744" stop-color="#C3CFFA"/>
</linearGradient>
<linearGradient id="paint13_linear_106_38102" x1="405.714" y1="4.30725" x2="256.851" y2="183.167" gradientUnits="userSpaceOnUse">
<stop offset="0.297482" stop-color="#D4D4D8"/>
<stop offset="0.776744" stop-color="#C3CFFA"/>
</linearGradient>
<clipPath id="clip0_106_38102">
<rect x="185" y="30.2104" width="107.987" height="76.4905" rx="2.57111" fill="white"/>
</clipPath>
</defs>
</svg>
