<svg width="440" height="257" viewBox="0 0 440 257" fill="none" xmlns="http://www.w3.org/2000/svg">
<rect opacity="0.5" x="129.5" y="44.5" width="184" height="212" rx="11.5" stroke="url(#paint0_linear_12938_35698)"/>
<g filter="url(#filter0_ii_12938_35698)">
<rect x="132.556" y="88.4883" width="176.205" height="110.236" fill="url(#paint1_linear_12938_35698)"/>
</g>
<g style="mix-blend-mode:soft-light" filter="url(#filter1_i_12938_35698)">
<rect x="272" y="89" width="12" height="100" fill="url(#paint2_linear_12938_35698)"/>
</g>
<g style="mix-blend-mode:soft-light" filter="url(#filter2_i_12938_35698)">
<rect x="157" y="89" width="12" height="100" fill="url(#paint3_linear_12938_35698)"/>
</g>
<g style="mix-blend-mode:soft-light">
<g filter="url(#filter3_i_12938_35698)">
<path d="M226.853 125.804C224.428 123.273 221.4 122 217.764 122C214.128 122 211.321 123.222 208.865 125.665C206.408 128.103 205.178 131.088 205.178 134.619C205.178 138.15 206.383 141.3 208.777 143.748C210.121 145.13 211.636 146.114 213.304 146.717C213.706 146.862 214.164 146.671 214.334 146.284L215.961 142.521C216.003 142.428 215.951 142.325 215.853 142.3C214.705 141.975 213.706 141.356 212.841 140.449C211.471 139.026 210.791 137.253 210.791 135.129C210.791 133.005 211.491 131.186 212.892 129.748C214.293 128.315 215.972 127.593 217.929 127.593C219.777 127.593 221.4 128.32 222.785 129.768C224.181 131.217 224.871 133.016 224.871 135.165C224.871 137.315 223.789 138.732 222.883 140.449L214.787 154.377L213.706 156.217C212.995 157.424 213.865 158.944 215.266 158.944H218.809C219.031 158.944 219.232 158.821 219.335 158.63L220.818 155.882L227.332 144.078C228.681 141.464 229.547 139.531 229.923 138.284C230.293 137.026 230.484 135.784 230.484 134.542C230.484 131.248 229.274 128.34 226.848 125.809" fill="url(#paint4_linear_12938_35698)"/>
</g>
<path d="M217.82 138.109C216.018 138.15 214.627 136.567 214.663 134.923C214.705 133.196 216.095 131.815 217.831 131.825C219.69 131.83 220.993 133.31 220.987 134.975C220.987 136.665 219.612 138.14 217.815 138.109" fill="#030712"/>
</g>
<g filter="url(#filter4_iii_12938_35698)">
<path d="M132.893 88.4883H309.097L333.646 134.624C334.748 136.697 333.247 139.197 330.899 139.197H110.09C107.719 139.197 106.22 136.652 107.368 134.579L132.893 88.4883Z" fill="#E5E7EB"/>
</g>
<g opacity="0.1">
<path d="M279.573 102.405L277.014 97.0729H278.072L279.804 100.992H279.855L280.145 97.0729H281.108L282.91 100.994H282.957L283.181 97.0729H284.239L283.733 102.405H282.762L280.955 98.6638H280.913L280.543 102.405H279.573Z" fill="#030712"/>
<path d="M286.57 102.405L285.544 97.0729H286.527L286.962 99.3304H289.478L289.044 97.0729H290.03L291.056 102.405H290.07L289.634 100.14H287.118L287.553 102.405H286.57Z" fill="#030712"/>
<path d="M297.087 99.7392C297.198 100.314 297.183 100.806 297.043 101.215C296.904 101.623 296.667 101.936 296.332 102.153C295.999 102.37 295.595 102.478 295.119 102.478C294.644 102.478 294.197 102.37 293.779 102.153C293.362 101.934 293.005 101.621 292.707 101.213C292.411 100.803 292.207 100.312 292.097 99.7392C291.987 99.1646 292.001 98.6734 292.14 98.2654C292.28 97.8558 292.517 97.5425 292.85 97.3255C293.185 97.1085 293.59 97 294.065 97C294.541 97 294.987 97.1085 295.403 97.3255C295.822 97.5425 296.179 97.8558 296.475 98.2654C296.773 98.6734 296.977 99.1646 297.087 99.7392ZM296.098 99.7392C296.021 99.3347 295.89 98.9936 295.708 98.7159C295.527 98.4364 295.31 98.2255 295.056 98.0832C294.802 97.9391 294.527 97.8671 294.232 97.8671C293.937 97.8671 293.69 97.9391 293.492 98.0832C293.293 98.2255 293.156 98.4364 293.08 98.7159C293.006 98.9936 293.008 99.3347 293.086 99.7392C293.164 100.144 293.294 100.486 293.475 100.765C293.657 101.043 293.875 101.254 294.129 101.398C294.383 101.54 294.657 101.611 294.953 101.611C295.248 101.611 295.495 101.54 295.694 101.398C295.892 101.254 296.028 101.043 296.102 100.765C296.177 100.486 296.176 100.144 296.098 99.7392Z" fill="#030712"/>
<path d="M298.127 97.0729H299.331L301.686 100.937H301.75L302.618 97.0729H303.822L304.848 102.405H303.904L303.199 98.7419H303.149L302.35 102.39H301.645L299.441 98.7341H299.39L300.097 102.405H299.153L298.127 97.0729Z" fill="#030712"/>
</g>
<path d="M287.701 72.5039H153.45L132.893 88.4882H309.097L287.701 72.5039Z" fill="url(#paint5_linear_12938_35698)"/>
<path d="M153.449 72.5039L132.892 88.4882H153.448L153.449 72.5039Z" fill="#D1D5DC"/>
<path d="M322.957 59.3673L343.26 70.9469C344.379 71.5849 344.282 73.228 343.096 73.7304L308.271 88.4882L287.623 72.5041L321.622 59.269C322.059 59.0988 322.549 59.135 322.957 59.3673Z" fill="url(#paint6_linear_12938_35698)"/>
<mask id="mask0_12938_35698" style="mask-type:alpha" maskUnits="userSpaceOnUse" x="287" y="59" width="58" height="30">
<path d="M322.957 59.3673L343.26 70.9469C344.379 71.5849 344.282 73.228 343.096 73.7304L308.271 88.4882L287.623 72.5041L321.622 59.269C322.059 59.0988 322.549 59.135 322.957 59.3673Z" fill="url(#paint7_linear_12938_35698)"/>
</mask>
<g mask="url(#mask0_12938_35698)">
<rect width="92.7298" height="58.7158" transform="matrix(0.92055 -0.390625 0.389974 0.920826 274.115 101.435)" fill="#D1D5DC"/>
</g>
<path d="M117.932 59.3673L97.6379 70.9418C96.5177 71.5807 96.6167 73.2268 97.8054 73.7269L132.893 88.4882L153.266 72.5041L119.267 59.269C118.83 59.0988 118.34 59.135 117.932 59.3673Z" fill="url(#paint8_linear_12938_35698)"/>
<mask id="mask1_12938_35698" style="mask-type:alpha" maskUnits="userSpaceOnUse" x="96" y="59" width="58" height="30">
<path d="M117.932 59.3673L97.6379 70.9418C96.5177 71.5807 96.6167 73.2268 97.8054 73.7269L132.893 88.4882L153.266 72.5041L119.267 59.269C118.83 59.0988 118.34 59.135 117.932 59.3673Z" fill="url(#paint9_linear_12938_35698)"/>
</mask>
<g mask="url(#mask1_12938_35698)">
<rect width="92.7299" height="58.7157" transform="matrix(0.920173 0.391513 -0.390861 0.92045 77.6525 63.6851)" fill="#D1D5DC"/>
</g>
<path d="M287.622 72.5039L309.097 88.4882H287.624L287.622 72.5039Z" fill="#D1D5DC"/>
<g opacity="0.5" filter="url(#filter5_dddddd_12938_35698)">
<rect x="152.154" y="22" width="135.692" height="47.3846" rx="12.9231" fill="#F9FAFB"/>
<rect x="152.962" y="22.8077" width="134.077" height="45.7692" rx="12.1154" stroke="url(#paint10_linear_12938_35698)" stroke-width="1.61538"/>
</g>
<g filter="url(#filter6_dddddd_12938_35698)">
<rect x="143.538" y="30.6155" width="152.923" height="47.3846" rx="12.9231" fill="#F9FAFB"/>
<rect x="144.346" y="31.4232" width="151.308" height="45.7692" rx="12.1154" stroke="url(#paint11_linear_12938_35698)" stroke-width="1.61538"/>
<rect x="156.462" y="41.3848" width="25.8462" height="25.8462" rx="12.9231" fill="#F3F4F6"/>
<rect x="157" y="41.9232" width="24.7692" height="24.7692" rx="12.3846" stroke="#E5E7EB" stroke-opacity="0.5" stroke-width="1.07692"/>
<path fill-rule="evenodd" clip-rule="evenodd" d="M165.615 59.9615H173.154C173.848 59.9615 174.41 59.399 174.41 58.7051V52.055C174.41 51.8884 174.344 51.7287 174.226 51.6108L171.453 48.8378C171.335 48.72 171.176 48.6538 171.009 48.6538H165.615C164.921 48.6538 164.359 49.2163 164.359 49.9102V58.7051C164.359 59.399 164.921 59.9615 165.615 59.9615Z" fill="#D1D5DC" stroke="#F3F4F6" stroke-width="0.942308" stroke-linecap="round" stroke-linejoin="round"/>
<path d="M169.385 57.4486H166.872" stroke="#F3F4F6" stroke-linecap="round" stroke-linejoin="round"/>
<path d="M166.872 54.9359H171.897" stroke="#F3F4F6" stroke-linecap="round" stroke-linejoin="round"/>
<path d="M174.41 52.423H171.897C171.204 52.423 170.641 51.8605 170.641 51.1666V48.6538" stroke="#F3F4F6" stroke-width="0.942308" stroke-linecap="round" stroke-linejoin="round"/>
<rect opacity="0.15" x="195.231" y="45.6924" width="34.4615" height="5.38462" rx="2.15385" fill="#4A5565"/>
<rect opacity="0.1" x="195.231" y="57.5386" width="68.9231" height="5.38462" rx="2.15385" fill="#99A1AF"/>
<circle opacity="0.1" cx="283.538" cy="43.5387" r="4.30769" fill="#046D66"/>
<circle cx="283.538" cy="43.5386" r="2.15385" fill="#09846F"/>
</g>
<path d="M440 122H416" stroke="#E5E7EB" stroke-width="1.5" stroke-linecap="round"/>
<path d="M416 130L416 114" stroke="#E5E7EB" stroke-width="1.5" stroke-linecap="round"/>
<path d="M0 122H24" stroke="#E5E7EB" stroke-width="1.5" stroke-linecap="round"/>
<path d="M24 130L24 114" stroke="#E5E7EB" stroke-width="1.5" stroke-linecap="round"/>
<path d="M54 38L54 206" stroke="url(#paint12_radial_12938_35698)" stroke-width="1.5" stroke-linecap="round" stroke-dasharray="2 6"/>
<path d="M382 38L382 206" stroke="url(#paint13_radial_12938_35698)" stroke-width="1.5" stroke-linecap="round" stroke-dasharray="2 6"/>
<path d="M326.395 39.8567C326.582 39.4757 327.159 39.6732 327.073 40.089C326.656 42.1182 327.663 44.173 329.522 45.0866C329.903 45.2738 329.706 45.8507 329.29 45.7652C327.261 45.3477 325.206 46.3546 324.292 48.214C324.105 48.5949 323.528 48.3974 323.614 47.9817C324.031 45.9525 323.024 43.8976 321.165 42.9841C320.784 42.7969 320.982 42.22 321.397 42.3055C323.426 42.723 325.481 41.7161 326.395 39.8567Z" fill="white"/>
<path opacity="0.4" d="M338.788 99.7828C338.949 99.39 339.538 99.5478 339.481 99.9684C339.202 102.021 340.346 104.003 342.264 104.788C342.656 104.949 342.499 105.538 342.078 105.481C340.025 105.202 338.043 106.346 337.258 108.264C337.097 108.656 336.508 108.499 336.565 108.078C336.844 106.025 335.7 104.043 333.783 103.258C333.39 103.097 333.548 102.508 333.968 102.565C336.021 102.844 338.003 101.7 338.788 99.7828Z" fill="white"/>
<path opacity="0.4" d="M111.244 154.647C111.187 154.227 111.776 154.069 111.937 154.462C112.722 156.379 114.704 157.523 116.757 157.244C117.177 157.187 117.335 157.776 116.942 157.937C115.025 158.722 113.881 160.704 114.16 162.757C114.217 163.177 113.628 163.335 113.467 162.942C112.682 161.025 110.7 159.881 108.647 160.16C108.227 160.217 108.069 159.628 108.462 159.467C110.379 158.682 111.523 156.7 111.244 154.647Z" fill="white"/>
<path opacity="0.3" d="M331.758 151.265C331.499 150.93 331.93 150.499 332.265 150.758C333.904 152.026 336.192 152.026 337.831 150.758C338.166 150.499 338.598 150.93 338.338 151.265C337.07 152.904 337.07 155.192 338.338 156.831C338.598 157.166 338.166 157.598 337.831 157.338C336.192 156.07 333.904 156.07 332.265 157.338C331.93 157.598 331.499 157.166 331.758 156.831C333.026 155.192 333.026 152.904 331.758 151.265Z" fill="white"/>
<path d="M108.042 100.242C107.712 100.287 107.588 99.8247 107.896 99.6985C109.4 99.0826 110.298 97.5281 110.079 95.9177C110.034 95.5878 110.496 95.464 110.622 95.7721C111.238 97.276 112.793 98.1735 114.403 97.9549C114.733 97.9101 114.857 98.3722 114.549 98.4984C113.045 99.1143 112.147 100.669 112.366 102.279C112.411 102.609 111.949 102.733 111.823 102.425C111.207 100.921 109.652 100.023 108.042 100.242Z" fill="white"/>
<path opacity="0.5" d="M115.248 44.1663C115.084 43.7748 115.612 43.4699 115.869 43.8077C117.124 45.4563 119.334 46.0486 121.245 45.2481C121.637 45.0841 121.941 45.6122 121.604 45.8693C119.955 47.1238 119.363 49.3341 120.163 51.2449C120.327 51.6364 119.799 51.9413 119.542 51.6036C118.288 49.9549 116.077 49.3627 114.166 50.1631C113.775 50.3272 113.47 49.799 113.808 49.542C115.456 48.2874 116.049 46.0771 115.248 44.1663Z" fill="white"/>
<defs>
<filter id="filter0_ii_12938_35698" x="132.556" y="88.4883" width="176.204" height="113.347" filterUnits="userSpaceOnUse" color-interpolation-filters="sRGB">
<feFlood flood-opacity="0" result="BackgroundImageFix"/>
<feBlend mode="normal" in="SourceGraphic" in2="BackgroundImageFix" result="shape"/>
<feColorMatrix in="SourceAlpha" type="matrix" values="0 0 0 0 0 0 0 0 0 0 0 0 0 0 0 0 0 0 127 0" result="hardAlpha"/>
<feMorphology radius="12.4444" operator="dilate" in="SourceAlpha" result="effect1_innerShadow_12938_35698"/>
<feOffset dy="80.8889"/>
<feGaussianBlur stdDeviation="7.77778"/>
<feComposite in2="hardAlpha" operator="arithmetic" k2="-1" k3="1"/>
<feColorMatrix type="matrix" values="0 0 0 0 0.907568 0 0 0 0 0.907568 0 0 0 0 0.907568 0 0 0 1 0"/>
<feBlend mode="multiply" in2="shape" result="effect1_innerShadow_12938_35698"/>
<feColorMatrix in="SourceAlpha" type="matrix" values="0 0 0 0 0 0 0 0 0 0 0 0 0 0 0 0 0 0 127 0" result="hardAlpha"/>
<feMorphology radius="6.22222" operator="dilate" in="SourceAlpha" result="effect2_innerShadow_12938_35698"/>
<feOffset dy="59.1111"/>
<feGaussianBlur stdDeviation="1.55556"/>
<feComposite in2="hardAlpha" operator="arithmetic" k2="-1" k3="1"/>
<feColorMatrix type="matrix" values="0 0 0 0 0.961361 0 0 0 0 0.961361 0 0 0 0 0.961361 0 0 0 1 0"/>
<feBlend mode="multiply" in2="effect1_innerShadow_12938_35698" result="effect2_innerShadow_12938_35698"/>
</filter>
<filter id="filter1_i_12938_35698" x="272" y="89" width="12" height="100" filterUnits="userSpaceOnUse" color-interpolation-filters="sRGB">
<feFlood flood-opacity="0" result="BackgroundImageFix"/>
<feBlend mode="normal" in="SourceGraphic" in2="BackgroundImageFix" result="shape"/>
<feColorMatrix in="SourceAlpha" type="matrix" values="0 0 0 0 0 0 0 0 0 0 0 0 0 0 0 0 0 0 127 0" result="hardAlpha"/>
<feOffset dy="2"/>
<feComposite in2="hardAlpha" operator="arithmetic" k2="-1" k3="1"/>
<feColorMatrix type="matrix" values="0 0 0 0 0 0 0 0 0 0 0 0 0 0 0 0 0 0 0.12 0"/>
<feBlend mode="normal" in2="shape" result="effect1_innerShadow_12938_35698"/>
</filter>
<filter id="filter2_i_12938_35698" x="157" y="89" width="12" height="100" filterUnits="userSpaceOnUse" color-interpolation-filters="sRGB">
<feFlood flood-opacity="0" result="BackgroundImageFix"/>
<feBlend mode="normal" in="SourceGraphic" in2="BackgroundImageFix" result="shape"/>
<feColorMatrix in="SourceAlpha" type="matrix" values="0 0 0 0 0 0 0 0 0 0 0 0 0 0 0 0 0 0 127 0" result="hardAlpha"/>
<feOffset dy="2"/>
<feComposite in2="hardAlpha" operator="arithmetic" k2="-1" k3="1"/>
<feColorMatrix type="matrix" values="0 0 0 0 0 0 0 0 0 0 0 0 0 0 0 0 0 0 0.12 0"/>
<feBlend mode="normal" in2="shape" result="effect1_innerShadow_12938_35698"/>
</filter>
<filter id="filter3_i_12938_35698" x="205.178" y="122" width="25.3063" height="36.9443" filterUnits="userSpaceOnUse" color-interpolation-filters="sRGB">
<feFlood flood-opacity="0" result="BackgroundImageFix"/>
<feBlend mode="normal" in="SourceGraphic" in2="BackgroundImageFix" result="shape"/>
<feColorMatrix in="SourceAlpha" type="matrix" values="0 0 0 0 0 0 0 0 0 0 0 0 0 0 0 0 0 0 127 0" result="hardAlpha"/>
<feOffset dy="2"/>
<feComposite in2="hardAlpha" operator="arithmetic" k2="-1" k3="1"/>
<feColorMatrix type="matrix" values="0 0 0 0 0 0 0 0 0 0 0 0 0 0 0 0 0 0 0.12 0"/>
<feBlend mode="normal" in2="shape" result="effect1_innerShadow_12938_35698"/>
</filter>
<filter id="filter4_iii_12938_35698" x="106.974" y="88.4883" width="227.041" height="50.7087" filterUnits="userSpaceOnUse" color-interpolation-filters="sRGB">
<feFlood flood-opacity="0" result="BackgroundImageFix"/>
<feBlend mode="normal" in="SourceGraphic" in2="BackgroundImageFix" result="shape"/>
<feColorMatrix in="SourceAlpha" type="matrix" values="0 0 0 0 0 0 0 0 0 0 0 0 0 0 0 0 0 0 127 0" result="hardAlpha"/>
<feOffset dy="-3.11111"/>
<feComposite in2="hardAlpha" operator="arithmetic" k2="-1" k3="1"/>
<feColorMatrix type="matrix" values="0 0 0 0 0.819608 0 0 0 0 0.835294 0 0 0 0 0.862745 0 0 0 1 0"/>
<feBlend mode="normal" in2="shape" result="effect1_innerShadow_12938_35698"/>
<feColorMatrix in="SourceAlpha" type="matrix" values="0 0 0 0 0 0 0 0 0 0 0 0 0 0 0 0 0 0 127 0" result="hardAlpha"/>
<feOffset dy="-1.16667"/>
<feComposite in2="hardAlpha" operator="arithmetic" k2="-1" k3="1"/>
<feColorMatrix type="matrix" values="0 0 0 0 1 0 0 0 0 1 0 0 0 0 1 0 0 0 0.13 0"/>
<feBlend mode="normal" in2="effect1_innerShadow_12938_35698" result="effect2_innerShadow_12938_35698"/>
<feColorMatrix in="SourceAlpha" type="matrix" values="0 0 0 0 0 0 0 0 0 0 0 0 0 0 0 0 0 0 127 0" result="hardAlpha"/>
<feOffset dy="1.55556"/>
<feComposite in2="hardAlpha" operator="arithmetic" k2="-1" k3="1"/>
<feColorMatrix type="matrix" values="0 0 0 0 1 0 0 0 0 1 0 0 0 0 1 0 0 0 0.25 0"/>
<feBlend mode="normal" in2="effect2_innerShadow_12938_35698" result="effect3_innerShadow_12938_35698"/>
</filter>
<filter id="filter5_dddddd_12938_35698" x="96.1538" y="0.461537" width="247.692" height="159.385" filterUnits="userSpaceOnUse" color-interpolation-filters="sRGB">
<feFlood flood-opacity="0" result="BackgroundImageFix"/>
<feColorMatrix in="SourceAlpha" type="matrix" values="0 0 0 0 0 0 0 0 0 0 0 0 0 0 0 0 0 0 127 0" result="hardAlpha"/>
<feMorphology radius="4.30769" operator="erode" in="SourceAlpha" result="effect1_dropShadow_12938_35698"/>
<feOffset dy="5.38462"/>
<feGaussianBlur stdDeviation="0.807692"/>
<feComposite in2="hardAlpha" operator="out"/>
<feColorMatrix type="matrix" values="0 0 0 0 0.0313726 0 0 0 0 0.0313726 0 0 0 0 0.0313726 0 0 0 0.05 0"/>
<feBlend mode="normal" in2="BackgroundImageFix" result="effect1_dropShadow_12938_35698"/>
<feColorMatrix in="SourceAlpha" type="matrix" values="0 0 0 0 0 0 0 0 0 0 0 0 0 0 0 0 0 0 127 0" result="hardAlpha"/>
<feMorphology radius="4.30769" operator="erode" in="SourceAlpha" result="effect2_dropShadow_12938_35698"/>
<feOffset dy="6.46154"/>
<feGaussianBlur stdDeviation="2.15385"/>
<feComposite in2="hardAlpha" operator="out"/>
<feColorMatrix type="matrix" values="0 0 0 0 0.0313726 0 0 0 0 0.0313726 0 0 0 0 0.0313726 0 0 0 0.05 0"/>
<feBlend mode="normal" in2="effect1_dropShadow_12938_35698" result="effect2_dropShadow_12938_35698"/>
<feColorMatrix in="SourceAlpha" type="matrix" values="0 0 0 0 0 0 0 0 0 0 0 0 0 0 0 0 0 0 127 0" result="hardAlpha"/>
<feOffset dy="6.46154"/>
<feGaussianBlur stdDeviation="7"/>
<feComposite in2="hardAlpha" operator="out"/>
<feColorMatrix type="matrix" values="0 0 0 0 0.0313726 0 0 0 0 0.0313726 0 0 0 0 0.0313726 0 0 0 0.03 0"/>
<feBlend mode="normal" in2="effect2_dropShadow_12938_35698" result="effect3_dropShadow_12938_35698"/>
<feColorMatrix in="SourceAlpha" type="matrix" values="0 0 0 0 0 0 0 0 0 0 0 0 0 0 0 0 0 0 127 0" result="hardAlpha"/>
<feMorphology radius="17.2308" operator="erode" in="SourceAlpha" result="effect4_dropShadow_12938_35698"/>
<feOffset dy="25.8462"/>
<feGaussianBlur stdDeviation="12.9231"/>
<feComposite in2="hardAlpha" operator="out"/>
<feColorMatrix type="matrix" values="0 0 0 0 0.0313726 0 0 0 0 0.0313726 0 0 0 0 0.0313726 0 0 0 0.04 0"/>
<feBlend mode="normal" in2="effect3_dropShadow_12938_35698" result="effect4_dropShadow_12938_35698"/>
<feColorMatrix in="SourceAlpha" type="matrix" values="0 0 0 0 0 0 0 0 0 0 0 0 0 0 0 0 0 0 127 0" result="hardAlpha"/>
<feMorphology radius="2.15385" operator="erode" in="SourceAlpha" result="effect5_dropShadow_12938_35698"/>
<feOffset dy="2.31538"/>
<feGaussianBlur stdDeviation="0.269231"/>
<feComposite in2="hardAlpha" operator="out"/>
<feColorMatrix type="matrix" values="0 0 0 0 0 0 0 0 0 0 0 0 0 0 0 0 0 0 0.25 0"/>
<feBlend mode="normal" in2="effect4_dropShadow_12938_35698" result="effect5_dropShadow_12938_35698"/>
<feColorMatrix in="SourceAlpha" type="matrix" values="0 0 0 0 0 0 0 0 0 0 0 0 0 0 0 0 0 0 127 0" result="hardAlpha"/>
<feMorphology radius="12.9231" operator="erode" in="SourceAlpha" result="effect6_dropShadow_12938_35698"/>
<feOffset dy="34.4615"/>
<feGaussianBlur stdDeviation="34.4615"/>
<feComposite in2="hardAlpha" operator="out"/>
<feColorMatrix type="matrix" values="0 0 0 0 0 0 0 0 0 0 0 0 0 0 0 0 0 0 0.075 0"/>
<feBlend mode="multiply" in2="effect5_dropShadow_12938_35698" result="effect6_dropShadow_12938_35698"/>
<feBlend mode="normal" in="SourceGraphic" in2="effect6_dropShadow_12938_35698" result="shape"/>
</filter>
<filter id="filter6_dddddd_12938_35698" x="87.5384" y="9.07702" width="264.923" height="159.385" filterUnits="userSpaceOnUse" color-interpolation-filters="sRGB">
<feFlood flood-opacity="0" result="BackgroundImageFix"/>
<feColorMatrix in="SourceAlpha" type="matrix" values="0 0 0 0 0 0 0 0 0 0 0 0 0 0 0 0 0 0 127 0" result="hardAlpha"/>
<feMorphology radius="4.30769" operator="erode" in="SourceAlpha" result="effect1_dropShadow_12938_35698"/>
<feOffset dy="5.38462"/>
<feGaussianBlur stdDeviation="0.807692"/>
<feComposite in2="hardAlpha" operator="out"/>
<feColorMatrix type="matrix" values="0 0 0 0 0.0313726 0 0 0 0 0.0313726 0 0 0 0 0.0313726 0 0 0 0.05 0"/>
<feBlend mode="normal" in2="BackgroundImageFix" result="effect1_dropShadow_12938_35698"/>
<feColorMatrix in="SourceAlpha" type="matrix" values="0 0 0 0 0 0 0 0 0 0 0 0 0 0 0 0 0 0 127 0" result="hardAlpha"/>
<feMorphology radius="4.30769" operator="erode" in="SourceAlpha" result="effect2_dropShadow_12938_35698"/>
<feOffset dy="6.46154"/>
<feGaussianBlur stdDeviation="2.15385"/>
<feComposite in2="hardAlpha" operator="out"/>
<feColorMatrix type="matrix" values="0 0 0 0 0.0313726 0 0 0 0 0.0313726 0 0 0 0 0.0313726 0 0 0 0.05 0"/>
<feBlend mode="normal" in2="effect1_dropShadow_12938_35698" result="effect2_dropShadow_12938_35698"/>
<feColorMatrix in="SourceAlpha" type="matrix" values="0 0 0 0 0 0 0 0 0 0 0 0 0 0 0 0 0 0 127 0" result="hardAlpha"/>
<feOffset dy="6.46154"/>
<feGaussianBlur stdDeviation="7"/>
<feComposite in2="hardAlpha" operator="out"/>
<feColorMatrix type="matrix" values="0 0 0 0 0.0313726 0 0 0 0 0.0313726 0 0 0 0 0.0313726 0 0 0 0.03 0"/>
<feBlend mode="normal" in2="effect2_dropShadow_12938_35698" result="effect3_dropShadow_12938_35698"/>
<feColorMatrix in="SourceAlpha" type="matrix" values="0 0 0 0 0 0 0 0 0 0 0 0 0 0 0 0 0 0 127 0" result="hardAlpha"/>
<feMorphology radius="17.2308" operator="erode" in="SourceAlpha" result="effect4_dropShadow_12938_35698"/>
<feOffset dy="25.8462"/>
<feGaussianBlur stdDeviation="12.9231"/>
<feComposite in2="hardAlpha" operator="out"/>
<feColorMatrix type="matrix" values="0 0 0 0 0.0313726 0 0 0 0 0.0313726 0 0 0 0 0.0313726 0 0 0 0.04 0"/>
<feBlend mode="normal" in2="effect3_dropShadow_12938_35698" result="effect4_dropShadow_12938_35698"/>
<feColorMatrix in="SourceAlpha" type="matrix" values="0 0 0 0 0 0 0 0 0 0 0 0 0 0 0 0 0 0 127 0" result="hardAlpha"/>
<feMorphology radius="2.15385" operator="erode" in="SourceAlpha" result="effect5_dropShadow_12938_35698"/>
<feOffset dy="2.31538"/>
<feGaussianBlur stdDeviation="0.269231"/>
<feComposite in2="hardAlpha" operator="out"/>
<feColorMatrix type="matrix" values="0 0 0 0 0 0 0 0 0 0 0 0 0 0 0 0 0 0 0.25 0"/>
<feBlend mode="normal" in2="effect4_dropShadow_12938_35698" result="effect5_dropShadow_12938_35698"/>
<feColorMatrix in="SourceAlpha" type="matrix" values="0 0 0 0 0 0 0 0 0 0 0 0 0 0 0 0 0 0 127 0" result="hardAlpha"/>
<feMorphology radius="12.9231" operator="erode" in="SourceAlpha" result="effect6_dropShadow_12938_35698"/>
<feOffset dy="34.4615"/>
<feGaussianBlur stdDeviation="34.4615"/>
<feComposite in2="hardAlpha" operator="out"/>
<feColorMatrix type="matrix" values="0 0 0 0 0 0 0 0 0 0 0 0 0 0 0 0 0 0 0.075 0"/>
<feBlend mode="multiply" in2="effect5_dropShadow_12938_35698" result="effect6_dropShadow_12938_35698"/>
<feBlend mode="normal" in="SourceGraphic" in2="effect6_dropShadow_12938_35698" result="shape"/>
</filter>
<linearGradient id="paint0_linear_12938_35698" x1="221.5" y1="44" x2="221.5" y2="257" gradientUnits="userSpaceOnUse">
<stop stop-color="#E5E7EB"/>
<stop offset="0.162484" stop-color="#E5E7EB" stop-opacity="0"/>
</linearGradient>
<linearGradient id="paint1_linear_12938_35698" x1="220.658" y1="88.4883" x2="220.658" y2="198.725" gradientUnits="userSpaceOnUse">
<stop offset="0.528448" stop-color="#E5E7EB"/>
<stop offset="0.836165" stop-color="#E5E7EB" stop-opacity="0"/>
</linearGradient>
<linearGradient id="paint2_linear_12938_35698" x1="278" y1="89" x2="278" y2="189" gradientUnits="userSpaceOnUse">
<stop offset="0.200139" stop-color="#030712"/>
<stop offset="0.723797" stop-color="#030712" stop-opacity="0"/>
</linearGradient>
<linearGradient id="paint3_linear_12938_35698" x1="163" y1="89" x2="163" y2="189" gradientUnits="userSpaceOnUse">
<stop offset="0.200139" stop-color="#030712"/>
<stop offset="0.723797" stop-color="#030712" stop-opacity="0"/>
</linearGradient>
<linearGradient id="paint4_linear_12938_35698" x1="217.831" y1="122" x2="217.831" y2="158.944" gradientUnits="userSpaceOnUse">
<stop offset="0.324581" stop-color="#030712"/>
<stop offset="1" stop-color="#030712" stop-opacity="0"/>
</linearGradient>
<linearGradient id="paint5_linear_12938_35698" x1="220.995" y1="92.622" x2="220.995" y2="72.5039" gradientUnits="userSpaceOnUse">
<stop stop-color="#D1D5DC"/>
<stop offset="1" stop-color="#E5E7EB"/>
</linearGradient>
<linearGradient id="paint6_linear_12938_35698" x1="319.697" y1="48.3026" x2="319.697" y2="88.4883" gradientUnits="userSpaceOnUse">
<stop stop-color="#F0F0F0"/>
<stop offset="1" stop-color="#E5E7EB"/>
</linearGradient>
<linearGradient id="paint7_linear_12938_35698" x1="319.697" y1="48.3026" x2="319.697" y2="88.4883" gradientUnits="userSpaceOnUse">
<stop stop-color="#F0F0F0"/>
<stop offset="1" stop-color="#E4E4E4"/>
</linearGradient>
<linearGradient id="paint8_linear_12938_35698" x1="121.192" y1="48.3026" x2="121.192" y2="88.4883" gradientUnits="userSpaceOnUse">
<stop stop-color="#F0F0F0"/>
<stop offset="1" stop-color="#E5E7EB"/>
</linearGradient>
<linearGradient id="paint9_linear_12938_35698" x1="121.192" y1="48.3026" x2="121.192" y2="88.4883" gradientUnits="userSpaceOnUse">
<stop stop-color="#F0F0F0"/>
<stop offset="1" stop-color="#E4E4E4"/>
</linearGradient>
<linearGradient id="paint10_linear_12938_35698" x1="220" y1="22" x2="220" y2="69.3846" gradientUnits="userSpaceOnUse">
<stop stop-color="#F9FAFB"/>
<stop offset="1" stop-color="#E5E7EB"/>
</linearGradient>
<linearGradient id="paint11_linear_12938_35698" x1="220" y1="30.6155" x2="220" y2="78.0001" gradientUnits="userSpaceOnUse">
<stop stop-color="#F9FAFB"/>
<stop offset="1" stop-color="#E5E7EB"/>
</linearGradient>
<radialGradient id="paint12_radial_12938_35698" cx="0" cy="0" r="1" gradientUnits="userSpaceOnUse" gradientTransform="translate(54.5 122) rotate(90) scale(84 13.7956)">
<stop stop-color="#E5E7EB"/>
<stop offset="1" stop-color="#E5E7EB" stop-opacity="0"/>
</radialGradient>
<radialGradient id="paint13_radial_12938_35698" cx="0" cy="0" r="1" gradientUnits="userSpaceOnUse" gradientTransform="translate(382.5 122) rotate(90) scale(84 13.7956)">
<stop stop-color="#E5E7EB"/>
<stop offset="1" stop-color="#E5E7EB" stop-opacity="0"/>
</radialGradient>
</defs>
</svg>
