<svg width="105" height="323" viewBox="0 0 105 323" fill="none" xmlns="http://www.w3.org/2000/svg">
  <path
    d="M103.529 162.99C103.025 209.676 77.9843 249.406 38.9277 277.523C-0.344542 305.796 -53.7549 322.296 -110.472 322.25C-167.98 322.203 -221.741 304.767 -260.834 275.957C-299.714 247.303 -324.04 207.439 -323.229 162.25L103.529 162.99ZM103.529 1.48828C103.025 48.1752 77.9846 87.9066 38.9277 116.024C-0.344526 144.297 -53.755 160.797 -110.472 160.751C-167.98 160.703 -221.741 143.267 -260.834 114.457C-299.714 85.803 -324.04 45.9395 -323.229 0.750977L103.529 1.48828Z"
    stroke="#E5E7EB" stroke-opacity="0.6" stroke-width="1.5" />
  <path
    d="M103.529 162.99C103.025 209.676 77.9843 249.406 38.9277 277.523C-0.344542 305.796 -53.7549 322.296 -110.472 322.25C-167.98 322.203 -221.741 304.767 -260.834 275.957C-299.714 247.303 -324.04 207.439 -323.229 162.25L103.529 162.99ZM103.529 1.48828C103.025 48.1752 77.9846 87.9066 38.9277 116.024C-0.344526 144.297 -53.755 160.797 -110.472 160.751C-167.98 160.703 -221.741 143.267 -260.834 114.457C-299.714 85.803 -324.04 45.9395 -323.229 0.750977L103.529 1.48828Z"
    stroke="url(#paint0_linear_12547_21221)" stroke-width="1.5" />
  <defs>
    <linearGradient id="paint0_linear_12547_21221" x1="-45.8173" y1="392" x2="-72.2072" y2="185.356"
      gradientUnits="userSpaceOnUse">
      <stop stop-color="#0A4AD6" stop-opacity="0.3" />
      <stop offset="1" stop-color="#0A4AD6" stop-opacity="0" />
    </linearGradient>
  </defs>
</svg>