<svg width="1323" height="184" viewBox="0 0 1323 184" fill="none" xmlns="http://www.w3.org/2000/svg">
<g clip-path="url(#clip0_5_1513)">
<path d="M737.04 145.705C723.14 146.025 712.399 133.805 712.699 121.155C713.009 107.855 723.74 97.2051 737.15 97.2551C751.49 97.3151 761.54 108.685 761.52 121.555C761.51 134.605 750.92 145.955 737.04 145.705Z" fill="#000A1D"/>
<path d="M1.27999 54.3252H32.16C32.38 54.3252 32.57 54.4652 32.64 54.6652L58.39 128.025L86.33 54.6552C86.41 54.4552 86.59 54.3252 86.81 54.3252H105.63C105.84 54.3252 106.03 54.4552 106.11 54.6552L133.56 127.055L159.55 54.6652C159.62 54.4652 159.81 54.3252 160.03 54.3252H190.92C191.27 54.3252 191.52 54.6752 191.4 55.0052L144.67 183.575C144.6 183.775 144.41 183.905 144.19 183.905H124.16C123.95 183.905 123.76 183.775 123.68 183.575L96.23 109.965L67.8 183.585C67.72 183.785 67.54 183.915 67.33 183.915H47.78C47.57 183.915 47.37 183.785 47.3 183.575L0.799988 55.0052C0.679988 54.6752 0.929988 54.3252 1.27999 54.3252Z" fill="#000A1D"/>
<path d="M210.84 0.195312H225.17C230.18 0.195312 234.23 4.25531 234.23 9.25531V67.4953C246.68 56.7553 258.63 50.9053 272.54 50.9053C296.94 50.9053 316.96 66.7653 316.96 98.2453V183.905H284.5V122.655C284.5 96.2953 281.33 80.6753 262.29 80.6753C253.26 80.6753 245.45 85.3153 240.33 93.3653C233.74 103.615 234.23 115.325 234.23 128.755V183.905H201.77V9.25531C201.78 4.25531 205.83 0.195312 210.84 0.195312Z" fill="#000A1D"/>
<path d="M467.13 115.575C467.13 153.155 438.09 183.905 398.55 183.905C359.01 183.905 331.19 153.885 331.19 115.815C331.19 77.7454 362.92 47.4854 398.3 47.4854C436.13 47.4854 467.12 77.2553 467.12 115.575H467.13ZM363.9 115.575C363.9 137.535 377.81 153.155 398.8 153.155C419.79 153.155 434.43 138.515 434.43 115.815C434.43 93.1154 420.03 78.2354 398.8 78.2354C377.57 78.2354 363.9 94.0953 363.9 115.575Z" fill="#000A1D"/>
<path d="M596.53 183.905H565.09C564.81 183.905 564.58 183.675 564.58 183.395V121.185C564.58 96.0453 559.7 80.6753 541.64 80.6753C525.53 80.6753 513.82 93.8553 513.82 120.455V183.395C513.82 183.675 513.59 183.905 513.31 183.905H481.87C481.59 183.905 481.36 183.675 481.36 183.395V53.5053C481.36 48.4853 485.43 44.4053 490.46 44.4053H504.73C509.75 44.4053 513.83 48.4753 513.83 53.5053V69.2153C524.81 57.2553 538.97 50.9153 554.34 50.9153C569.71 50.9153 584.11 58.4853 592.17 74.0953C604.13 58.9653 616.09 50.9153 635.61 50.9153C650.01 50.9153 662.94 56.7753 670.26 66.0453C678.8 76.7853 679.78 90.9353 679.78 108.025V183.415C679.78 183.695 679.55 183.925 679.27 183.925H647.83C647.55 183.925 647.32 183.695 647.32 183.415V112.415C647.32 91.1853 639.75 80.6853 625.11 80.6853C608.76 80.6853 597.05 93.3753 597.05 119.975V183.405C597.05 183.685 596.82 183.915 596.54 183.915L596.53 183.905Z" fill="#000A1D"/>
<path d="M891.709 13.115L907.209 3.54496C911.609 0.834962 917.279 3.99496 917.279 9.16496V176.085C917.279 180.415 913.779 183.915 909.449 183.915H895.239C890.909 183.915 887.409 180.405 887.409 176.085V170.015C887.409 169.325 886.589 168.975 886.079 169.435C880.689 174.345 875.289 177.925 869.869 180.185C863.999 182.625 857.649 183.845 850.799 183.845C835.429 183.845 822.129 177.885 810.909 165.955C799.689 154.025 794.079 139.205 794.079 121.475C794.079 103.745 799.509 88.025 810.359 76.285C821.219 64.545 834.399 58.665 849.919 58.665C857.059 58.665 863.759 60.015 870.029 62.715C875.769 65.185 881.119 68.795 886.069 73.535C886.569 74.015 887.409 73.675 887.409 72.975V20.825C887.409 17.685 889.039 14.765 891.709 13.115ZM856.009 86.235C846.779 86.235 839.109 89.505 832.999 96.025C826.889 102.555 823.839 110.925 823.839 121.135C823.839 131.345 826.609 138.945 832.159 145.405C839.399 153.835 850.429 157.705 861.419 156.105C868.469 155.085 874.479 151.945 879.449 146.685C885.629 140.155 888.719 131.605 888.719 121.025C888.719 110.445 885.629 102.275 879.449 95.855C873.269 89.435 865.459 86.225 856.009 86.225V86.235Z" fill="#111016"/>
<path d="M992.749 58.7246C1003.98 58.7246 1014.54 61.5346 1024.43 67.1546C1034.31 72.7746 1042.03 80.3946 1047.57 90.0246C1055.1 103.095 1057.52 117.585 1054.82 133.495C1054.35 136.275 1053.62 139.015 1052.64 141.665C1047.02 156.885 1037.71 168.215 1024.7 175.655C1015.07 181.165 1004.46 183.915 992.859 183.915C975.789 183.915 961.219 177.845 949.149 165.695C937.079 153.545 931.039 138.795 931.039 121.435C931.039 102.835 937.859 87.3346 951.499 74.9346C963.459 64.1346 977.209 58.7446 992.749 58.7446V58.7246ZM993.239 86.8446C983.959 86.8446 976.229 90.0746 970.059 96.5246C963.889 102.985 960.799 111.245 960.799 121.305C960.799 131.365 963.849 140.055 969.949 146.475C976.049 152.895 983.779 156.105 993.129 156.105C1002.48 156.105 1010.26 152.855 1016.48 146.365C1022.69 139.875 1025.8 131.525 1025.8 121.305C1025.8 111.085 1022.75 102.795 1016.65 96.4146C1010.55 90.0346 1002.75 86.8346 993.249 86.8346L993.239 86.8446Z" fill="#111016"/>
<path d="M1183.77 90.3746L1172.12 96.7746C1169.26 98.3446 1165.71 97.9846 1163.25 95.8346C1159.89 92.8946 1156.55 90.7346 1153.25 89.3646C1148.68 87.4646 1143.33 86.5246 1137.2 86.5246C1126.03 86.5246 1116.99 89.8546 1110.09 96.5246C1103.19 103.185 1099.74 111.725 1099.74 122.145C1099.74 132.565 1103.06 140.535 1109.71 146.945C1116.36 153.355 1125.08 156.555 1135.89 156.555C1146.7 156.555 1156.02 153.425 1163.03 147.155C1165.68 144.785 1169.64 144.605 1172.57 146.615L1183.35 153.995C1187.44 156.795 1187.92 162.635 1184.37 166.105C1172.2 177.975 1156.28 183.905 1136.61 183.905C1115.67 183.905 1099.28 177.705 1087.43 165.305C1075.58 152.905 1069.65 138.385 1069.65 121.755C1069.65 110.225 1072.53 99.6146 1078.3 89.9146C1084.06 80.2146 1092.1 72.5946 1102.43 67.0446C1112.75 61.5046 1124.3 58.7246 1137.06 58.7246C1148.88 58.7246 1159.49 61.0746 1168.9 65.7846C1175.25 68.9646 1180.82 73.0446 1185.61 78.0246C1189.2 81.7646 1188.33 87.8746 1183.78 90.3746H1183.77Z" fill="#111016"/>
<path d="M1260.33 81.6946C1251.48 81.9046 1244.65 74.1246 1244.84 66.0646C1245.04 57.5946 1251.86 50.8246 1260.41 50.8546C1269.54 50.8946 1275.93 58.1346 1275.92 66.3246C1275.92 74.6246 1269.17 81.8546 1260.34 81.6946H1260.33Z" fill="#000A1D"/>
<path d="M1304.69 21.3045C1292.78 8.87453 1277.91 2.64453 1260.03 2.64453C1242.15 2.64453 1228.39 8.64453 1216.31 20.6245C1204.24 32.6045 1198.2 47.2345 1198.2 64.5645C1198.2 81.8945 1204.11 97.3445 1215.89 109.355C1222.53 116.165 1230 121.025 1238.27 123.975C1240.22 124.665 1242.37 123.695 1243.19 121.795L1251.56 102.475C1245.56 100.955 1240.33 97.8345 1235.85 93.1645C1229.13 86.1845 1225.79 77.4845 1225.79 67.0745C1225.79 56.6645 1229.23 47.7345 1236.11 40.6545C1242.99 33.6145 1251.23 30.0745 1260.84 30.0745C1269.93 30.0745 1277.88 33.6445 1284.69 40.7545C1291.54 47.8645 1294.95 56.6945 1294.95 67.2345C1294.95 77.7745 1289.63 84.7345 1285.18 93.1645L1245.42 161.515L1240.12 170.535C1236.64 176.455 1240.91 183.925 1247.78 183.925H1265.19C1266.27 183.925 1267.27 183.335 1267.78 182.375L1275.06 168.885L1307.06 110.955C1313.68 98.1345 1317.93 88.6545 1319.78 82.5245C1321.6 76.3545 1322.54 70.2545 1322.54 64.1545C1322.54 47.9945 1316.6 33.7145 1304.69 21.3145V21.3045Z" fill="#111016"/>
</g>
<defs>
<clipPath id="clip0_5_1513">
<rect width="1321.77" height="183.71" fill="white" transform="translate(0.769531 0.195312)"/>
</clipPath>
</defs>
</svg>
