<svg width="1440" height="794" viewBox="0 0 1440 794" fill="none" xmlns="http://www.w3.org/2000/svg">
<g clip-path="url(#clip0_9183_257)">
<path d="M-20.2432 -162.333C-5.47524 -170.259 12.4072 -159.55 12.4072 -142.781V159.977C12.4072 168.683 7.31119 176.586 -0.614258 180.187L-59.6611 206.977C-74.3444 213.634 -90.9998 202.897 -91 186.768V-111.108L-90.9873 -111.873C-90.7256 -119.504 -86.5636 -126.465 -79.9697 -130.297L-79.3018 -130.67L-20.9189 -161.977H-20.9082L-20.2432 -162.333Z" stroke="#E3ECFF" stroke-width="6"/>
<path d="M137.664 -49.5037C152.432 -57.429 170.314 -46.7202 170.314 -29.9509V272.797C170.314 281.503 165.218 289.406 157.293 293.007L98.2461 319.797C83.5628 326.454 66.9075 315.716 66.9072 299.588V1.71216C66.9072 -6.20627 71.1233 -13.5074 77.9375 -17.4675L78.6055 -17.8406L136.988 -49.1472H136.999L137.664 -49.5037Z" stroke="#E3ECFF" stroke-width="6"/>
<path d="M335.404 -162.333C350.171 -170.258 368.053 -159.55 368.053 -142.781V159.968C368.053 168.676 362.966 176.577 355.042 180.177L295.994 206.968C281.311 213.624 264.657 202.886 264.656 186.759V-111.117C264.656 -119.036 268.873 -126.337 275.687 -130.297L276.355 -130.67L335.403 -162.333H335.404Z" stroke="#E3ECFF" stroke-width="6"/>
<path d="M493.321 -49.5037C508.088 -57.429 525.971 -46.7203 525.971 -29.9509V272.797C525.971 281.503 520.875 289.406 512.949 293.007L453.903 319.797C439.219 326.454 422.564 315.716 422.564 299.588V1.71216C422.564 -6.20628 426.78 -13.5074 433.594 -17.4675L434.262 -17.8406L492.645 -49.1472H492.656L493.321 -49.5037Z" stroke="#E3ECFF" stroke-width="6"/>
<path d="M691.07 -162.333C705.838 -170.259 723.72 -159.55 723.72 -142.781V159.968C723.72 168.674 718.624 176.576 710.699 180.177L651.651 206.968C636.968 213.624 620.313 202.886 620.313 186.759V-111.117C620.313 -119.29 624.814 -126.807 632.012 -130.67L632.011 -130.671L690.394 -161.977H690.405L691.07 -162.333Z" stroke="#E3ECFF" stroke-width="6"/>
<path d="M848.967 -49.5037C863.735 -57.429 881.617 -46.7202 881.617 -29.9509V272.797C881.617 281.503 876.521 289.406 868.596 293.007L809.549 319.797C794.866 326.454 778.21 315.716 778.21 299.588V1.71216C778.21 -6.20628 782.426 -13.5074 789.24 -17.4675L789.908 -17.8406L848.291 -49.1472H848.302L848.967 -49.5037Z" stroke="#E3ECFF" stroke-width="6"/>
<path d="M1046.72 -162.333C1061.49 -170.26 1079.38 -159.549 1079.38 -142.781V159.968C1079.38 168.674 1074.28 176.576 1066.35 180.177L1007.31 206.968C992.624 213.624 975.97 202.886 975.969 186.759V-111.117C975.969 -119.036 980.185 -126.337 987 -130.297L987.667 -130.67L1046.72 -162.333Z" stroke="#E3ECFF" stroke-width="6"/>
<path d="M1204.61 -49.5037C1219.39 -57.4303 1237.27 -46.719 1237.27 -29.9509V272.797C1237.27 281.503 1232.18 289.406 1224.25 293.007L1165.21 319.797C1150.52 326.454 1133.87 315.716 1133.87 299.588V1.71216C1133.87 -6.20628 1138.08 -13.5074 1144.9 -17.4675L1145.56 -17.8406L1204.61 -49.5037Z" stroke="#E3ECFF" stroke-width="6"/>
<path d="M1402.38 -162.333C1417.15 -170.259 1435.03 -159.55 1435.03 -142.781V159.968C1435.03 168.674 1429.94 176.576 1422.01 180.177L1362.96 206.968C1348.28 213.624 1331.63 202.886 1331.63 186.759V-111.117C1331.63 -119.29 1336.13 -126.807 1343.33 -130.67L1343.32 -130.671L1401.71 -161.977H1401.72L1402.38 -162.333Z" stroke="#E3ECFF" stroke-width="6"/>
<path d="M-20.2432 418.87C-5.47439 410.944 12.4072 421.644 12.4072 438.422V741.161C12.4072 749.867 7.31121 757.769 -0.614258 761.37L-59.6611 788.161C-74.3444 794.817 -90.9998 784.08 -91 767.952V470.076C-91 461.903 -86.4989 454.386 -79.3008 450.523L-79.3018 450.522L-22.2197 419.913L-22.209 419.924L-20.2432 418.87Z" stroke="#E3ECFF" stroke-width="6"/>
<path d="M137.664 531.689C152.432 523.764 170.314 534.473 170.314 551.242V853.99C170.314 862.696 165.218 870.599 157.293 874.2L98.2451 900.99C83.562 907.646 66.9075 896.909 66.9072 880.781V582.905C66.9072 574.731 71.4001 567.216 78.6055 563.354V563.353L136.988 532.046H136.999L137.664 531.689Z" stroke="#E3ECFF" stroke-width="6"/>
<path d="M335.404 418.87C350.172 410.944 368.053 421.644 368.053 438.422V741.161C368.053 749.869 362.966 757.77 355.042 761.37L295.995 788.161C281.312 794.817 264.657 784.08 264.656 767.952V470.076C264.656 461.902 269.149 454.386 276.355 450.524V450.523L330.985 421.228V421.241L335.404 418.87Z" stroke="#E3ECFF" stroke-width="6"/>
<path d="M493.321 531.689C508.088 523.764 525.971 534.473 525.971 551.242V853.99C525.971 862.696 520.875 870.599 512.949 874.2L453.902 900.99C439.219 907.646 422.564 896.909 422.564 880.781V582.905C422.564 574.731 427.057 567.216 434.262 563.354V563.353L492.645 532.046H492.656L493.321 531.689Z" stroke="#E3ECFF" stroke-width="6"/>
<path d="M691.07 418.87C705.839 410.944 723.72 421.644 723.72 438.422V741.161C723.72 749.867 718.624 757.769 710.699 761.37L651.652 788.161C636.969 794.817 620.313 784.08 620.313 767.952V470.076C620.313 461.903 624.814 454.386 632.012 450.523L632.011 450.522L689.093 419.912L689.105 419.924L691.07 418.87Z" stroke="#E3ECFF" stroke-width="6"/>
<path d="M848.967 531.689C863.735 523.764 881.617 534.473 881.617 551.242V853.99C881.617 862.696 876.521 870.599 868.596 874.2L809.548 900.99C794.865 907.646 778.21 896.909 778.21 880.781V582.905C778.21 574.731 782.703 567.216 789.908 563.354V563.353L848.291 532.046H848.302L848.967 531.689Z" stroke="#E3ECFF" stroke-width="6"/>
<path d="M1046.72 418.87C1061.5 410.942 1079.38 421.645 1079.38 438.422V741.161C1079.38 749.867 1074.28 757.769 1066.35 761.37L1007.31 788.161C992.625 794.817 975.969 784.08 975.969 767.952V470.076C975.969 461.902 980.462 454.386 987.667 450.524V450.523L1042.3 421.228V421.24L1046.72 418.87Z" stroke="#E3ECFF" stroke-width="6"/>
<path d="M1204.61 531.689C1219.39 523.763 1237.27 534.474 1237.27 551.242V853.99C1237.27 862.696 1232.18 870.599 1224.25 874.2L1165.2 900.99C1150.52 907.646 1133.87 896.909 1133.87 880.781V582.905C1133.87 574.731 1138.36 567.216 1145.56 563.354V563.353L1204.61 531.689Z" stroke="#E3ECFF" stroke-width="6"/>
<path d="M1402.38 418.87C1417.15 410.944 1435.03 421.644 1435.03 438.422V741.161C1435.03 749.867 1429.94 757.769 1422.01 761.37L1362.96 788.161C1348.28 794.817 1331.63 784.08 1331.63 767.952V470.076C1331.63 461.903 1336.13 454.386 1343.33 450.523L1343.32 450.522L1400.41 419.912L1400.42 419.924L1402.38 418.87Z" stroke="#E3ECFF" stroke-width="6"/>
</g>
<defs>
<clipPath id="clip0_9183_257">
<rect width="1705" height="1074" fill="white" transform="translate(-94 -168)"/>
</clipPath>
</defs>
</svg>
