<svg width="36" height="100" viewBox="0 0 36 100" fill="none" xmlns="http://www.w3.org/2000/svg">
<rect width="36" height="100" fill="#FD9CBF"/>
<path d="M19.4952 60.9706C17.876 60.7031 16.6167 59.5825 16.6167 58.029C16.6167 57.2267 17.1179 56.7301 17.9274 56.7301C18.9683 56.7301 19.688 58.2964 19.7265 60.7414C19.7265 60.9196 19.6365 61.0088 19.4952 60.9706ZM20.4847 64.8927C24.2627 64.8927 26.5115 62.435 26.5115 58.3346C26.5115 55.1256 25.0209 52.8461 22.862 52.8461C22.4122 52.8461 22.1424 53.0244 22.1424 53.2918C22.1424 53.6102 23.7615 54.3615 23.7615 57.3541C23.7615 58.8694 23.2218 60.0282 22.1809 60.614C22.001 60.7031 21.9111 60.614 21.9111 60.4357C21.7697 55.9278 20.4718 52.948 17.6833 52.948C15.4345 52.948 13.9952 54.7817 13.9952 57.8507C14.0081 62.3077 16.3982 64.8927 20.4847 64.8927ZM23.2732 21.8256C20.5232 20.0811 19.2253 18.2983 17.3363 15.5349C17.0151 15.0892 16.7452 15.0001 15.2674 15.0001C14.5478 15.0001 14.1366 15.2293 14.1366 15.6241L14.1366 23.965C14.1366 24.4107 14.3679 24.729 14.6377 24.8182C15.5887 25.1747 16.3468 25.4039 16.5267 25.4039C16.7966 25.4039 16.9765 25.1747 16.9765 24.8182L16.9765 20.8069C16.9765 20.6286 17.1179 20.5777 17.2464 20.756C21.1657 25.2639 22.7335 25.7096 25.2522 25.7096C25.9718 25.7096 26.383 25.4804 26.383 25.0856L26.383 16.4391C26.383 15.9934 26.1517 15.726 25.8819 15.5859C25.7019 15.4967 25.522 15.4458 25.3807 15.4076C24.3013 15.051 24.2113 15.0001 23.98 15.0001C23.7101 15.0001 23.5302 15.1784 23.5302 15.5859L23.5302 21.6983C23.5431 21.8638 23.4146 21.9148 23.2732 21.8256ZM22.515 38.673C25.6248 38.673 26.5244 36.9284 26.5244 35.2348C26.5244 33.2737 25.3036 32.2422 24.4555 31.7074C24.3141 31.6182 24.2756 31.5291 24.2756 31.44C24.2756 31.2999 24.3655 31.2107 24.5454 31.2107L25.6763 31.2107C26.216 31.2107 26.5372 30.4976 26.5372 29.377C26.5372 28.2564 26.216 27.5942 25.6762 27.5942L14.7791 27.5942C14.2779 27.5942 14.0081 27.8234 14.0081 28.2182C14.0081 28.3583 14.0595 28.4856 14.098 28.6257L14.7791 30.6759C14.9204 31.0834 15.3188 31.3508 15.9999 31.3508L20.1891 31.3508C22.2195 31.3508 23.119 32.3823 23.119 33.401C23.119 34.1651 22.5279 34.9164 21.0886 34.9164L14.7919 34.9164C14.2908 34.9164 14.0209 35.1456 14.0209 35.5404C14.0209 35.6805 14.0723 35.8078 14.1109 35.9479L14.7791 38.0108C14.9204 38.4183 15.3188 38.6857 15.9999 38.6857L22.515 38.6857L22.515 38.673ZM25.6634 85C26.2031 85 26.5244 84.2869 26.5244 83.1663C26.5244 82.0457 26.2031 81.2434 25.6634 81.2434L20.3562 81.2434C18.3258 81.2434 17.4263 80.352 17.4263 79.3715C17.4263 78.6074 18.0174 77.8561 19.4566 77.8561L25.6634 77.8561C26.2031 77.8561 26.5244 77.143 26.5244 76.0224C26.5244 74.9018 26.2031 74.0995 25.6634 74.0995L20.3562 74.0995C18.2359 74.0995 17.4263 73.1572 17.4263 72.2276C17.4263 71.4635 18.0174 70.7122 19.4566 70.7122L23.2861 70.7122C26.216 70.7122 27.9636 69.1969 27.9636 66.65C27.9636 65.3129 27.5139 64.4215 26.8842 64.4215C26.7942 64.4215 26.6529 64.4215 26.5629 64.5616C25.8433 66.0388 25.0337 66.9684 22.6436 66.9684L18.0174 66.9684C14.9076 66.9684 14.0081 68.6238 14.0081 70.2665C14.0081 72.1894 15.2289 73.2081 16.077 73.743C16.3982 73.9212 16.3982 74.4179 16.077 74.507C14.4964 75.0419 14.0081 76.2898 14.0081 77.5378C14.0081 79.4606 15.2289 80.352 16.077 80.8869C16.3982 81.0651 16.2569 81.3835 15.987 81.3835L14.7662 81.3835C14.2651 81.3835 13.9952 81.6127 13.9952 82.0075C13.9952 82.1475 14.0466 82.2749 14.0852 82.415L14.7791 84.3251C14.9076 84.7326 15.3188 85 15.987 85L25.6634 85ZM14.098 42.1112L14.7791 44.1614C14.9204 44.5689 15.3188 44.8363 15.9999 44.8363L25.6634 44.8363C26.2031 44.8363 26.5244 44.1232 26.5244 43.0026C26.5244 41.882 26.2031 41.0797 25.6634 41.0797L14.7791 41.0797C14.2779 41.0797 14.0081 41.309 14.0081 41.7037C14.0081 41.8438 14.0595 41.9711 14.098 42.1112ZM10.6798 44.8236C9.99873 44.8236 9.60037 44.5562 9.45901 44.1487L8.77794 42.0985C8.72654 41.9584 8.68799 41.8311 8.68799 41.691C8.68799 41.2835 8.95785 41.067 9.45901 41.067L10.8597 41.067C11.5408 41.067 11.9391 41.3344 12.0805 41.7419L12.7616 43.7921C12.813 43.9322 12.8515 44.0596 12.8515 44.1996C12.8515 44.6071 12.5817 44.8236 12.0805 44.8236L10.6798 44.8236ZM11.9006 60.9706L12.8001 60.9706C13.1599 60.9706 13.3912 60.6522 13.3013 60.2957L11.952 55.966C11.8106 55.4694 11.5022 55.1128 10.9625 55.1128L9.29196 55.1128C8.84219 55.1128 8.61088 55.5585 8.79079 55.9151L11.1296 60.423C11.3095 60.7414 11.4894 60.9706 11.9006 60.9706ZM8.79079 48.2618L9.47186 50.312C9.61322 50.7195 10.0116 50.987 10.6927 50.987L25.6634 50.987C26.2031 50.987 26.5244 50.2738 26.5244 49.1532C26.5244 48.0326 26.2031 47.2304 25.6634 47.2304L9.47186 47.2304C8.9707 47.2304 8.70084 47.4596 8.70084 47.8543C8.70084 47.9944 8.75224 48.1345 8.79079 48.2618Z" fill="white"/>
</svg>
