<svg viewBox="0 0 26 24" fill="currentColor" xmlns="http://www.w3.org/2000/svg">
<path d="M4.875 10C4.875 10.5469 4.44531 10.9375 3.9375 10.9375H1.4375C0.890625 10.9375 0.5 10.5469 0.5 10C0.5 9.49219 0.890625 9.0625 1.4375 9.0625H3.9375C4.44531 9.0625 4.875 9.49219 4.875 10ZM2.49219 5.03906C2.21875 4.88281 2.02344 4.57031 2.02344 4.21875C2.02344 3.90625 2.17969 3.59375 2.49219 3.39844C2.76562 3.24219 3.15625 3.24219 3.42969 3.4375L5.61719 4.6875C5.89062 4.84375 6.08594 5.15625 6.08594 5.50781C6.08594 5.82031 5.89062 6.13281 5.61719 6.32812C5.30469 6.48438 4.95312 6.48438 4.67969 6.28906L2.49219 5.03906ZM20.8516 6.40625C20.4219 6.40625 20.0312 6.13281 19.9141 5.74219C19.7969 5.3125 19.9922 4.88281 20.3438 4.6875L22.5312 3.4375C22.9609 3.16406 23.5469 3.32031 23.7812 3.78906C24.0547 4.21875 23.8984 4.76562 23.4688 5.03906L21.3203 6.28906C21.1641 6.36719 21.0078 6.40625 20.8516 6.40625ZM12.9609 22.5C11.5938 22.5 10.5 21.4062 10.5 20H15.5C15.5 21.4062 14.3672 22.5 12.9609 22.5ZM24.5625 9.0625C25.0703 9.0625 25.5 9.49219 25.5 10C25.5 10.5469 25.0703 10.9375 24.5625 10.9375H22.0625C21.5156 10.9375 21.125 10.5469 21.125 10C21.125 9.49219 21.5156 9.0625 22.0625 9.0625H24.5625ZM19.2109 10.625C19.2109 14.6484 20.6562 15.8594 21.3984 16.6797C21.6328 16.9141 21.75 17.1875 21.75 17.5391C21.7109 18.1641 21.2422 18.7891 20.4609 18.7891H5.5C4.75781 18.7891 4.25 18.1641 4.25 17.5391C4.25 17.1875 4.36719 16.9141 4.5625 16.6797C5.30469 15.8594 6.75 14.6484 6.75 10.625C6.75 7.61719 8.85938 5.19531 11.75 4.57031V3.75C11.75 3.08594 12.2969 2.5 13 2.5C13.6641 2.5 14.25 3.08594 14.25 3.75V4.57031C17.1016 5.19531 19.2109 7.61719 19.2109 10.625Z" fill="currentColor"/>
</svg>
