<svg viewBox="0 0 26 24" fill="currentColor" xmlns="http://www.w3.org/2000/svg">
<path d="M20.8516 6.44531C20.4219 6.44531 20.0312 6.17188 19.9141 5.78125C19.8359 5.35156 19.9922 4.92188 20.3828 4.72656L22.5312 3.47656C22.9609 3.20312 23.5469 3.35938 23.7812 3.82812C24.0547 4.25781 23.8984 4.80469 23.4688 5.07812L21.3203 6.32812C21.1641 6.40625 21.0078 6.44531 20.8516 6.44531ZM4.875 10.0391C4.875 10.5469 4.44531 10.9766 3.9375 10.9766H1.4375C0.890625 10.9766 0.5 10.5469 0.5 10.0391C0.5 9.53125 0.890625 9.10156 1.4375 9.10156H3.9375C4.44531 9.10156 4.875 9.53125 4.875 10.0391ZM2.49219 5.07812C2.21875 4.92188 2.02344 4.60938 2.02344 4.25781C2.02344 3.94531 2.17969 3.63281 2.49219 3.4375C2.80469 3.28125 3.15625 3.28125 3.42969 3.47656L5.61719 4.72656C5.89062 4.88281 6.08594 5.19531 6.08594 5.50781C6.08594 5.85938 5.89062 6.17188 5.61719 6.32812C5.30469 6.52344 4.95312 6.52344 4.67969 6.32812L2.49219 5.07812ZM24.5625 9.10156C25.0703 9.10156 25.5 9.53125 25.5 10.0391C25.5 10.5469 25.0703 10.9766 24.5625 10.9766H22.0625C21.5156 10.9766 21.125 10.5469 21.125 10.0391C21.125 9.53125 21.5156 9.10156 22.0625 9.10156H24.5625ZM19.2109 10.6641C19.2109 14.6484 20.6562 15.8594 21.3984 16.6797C21.6328 16.9141 21.75 17.1875 21.75 17.5391C21.7109 18.1641 21.2422 18.7891 20.4609 18.7891H5.5C4.75781 18.7891 4.25 18.1641 4.25 17.5391C4.25 17.1875 4.36719 16.9141 4.5625 16.6797C5.30469 15.8594 6.75 14.6484 6.75 10.6641C6.75 7.61719 8.85938 5.19531 11.75 4.60938V3.78906C11.7109 3.35938 11.9453 2.92969 12.3359 2.69531C12.7266 2.46094 13.2344 2.46094 13.625 2.69531C14.0156 2.92969 14.25 3.35938 14.25 3.78906V4.60938C17.1016 5.19531 19.2109 7.61719 19.2109 10.6641ZM6.86719 16.9141H19.0938C18.2734 15.8203 17.375 14.0234 17.375 10.7031V10.6641C17.375 8.24219 15.3828 6.28906 13 6.28906C10.5781 6.28906 8.625 8.24219 8.625 10.6641V10.7031C8.625 14.0234 7.6875 15.8203 6.86719 16.9141ZM12.9609 22.5C11.5938 22.5 10.5 21.4062 10.5 20H15.5C15.5 21.4062 14.3672 22.5 12.9609 22.5Z" fill="currentColor"/>
</svg>
