<svg width="48" height="48" viewBox="0 0 48 48" fill="none" xmlns="http://www.w3.org/2000/svg">
<path d="M24 4.625C34.625 4.625 43.375 13.375 43.375 24C43.375 34.7031 34.625 43.375 24 43.375C13.2969 43.375 4.625 34.7031 4.625 24C4.625 13.375 13.2969 4.625 24 4.625ZM24 39.625C32.5938 39.625 39.625 32.6719 39.625 24C39.625 15.4062 32.5938 8.375 24 8.375C15.3281 8.375 8.375 15.4062 8.375 24C8.375 32.6719 15.3281 39.625 24 39.625ZM27.2812 31.5C27.2812 33.375 25.7969 34.7812 24 34.7812C22.125 34.7812 20.7188 33.375 20.7188 31.5C20.7188 29.7031 22.125 28.2188 24 28.2188C25.7969 28.2188 27.2812 29.7031 27.2812 31.5ZM20.875 15.0156C20.875 14.4688 21.2656 14 21.8125 14H26.1094C26.6562 14 27.0469 14.4688 27.0469 15.0156L26.5 25.6406C26.5 26.1094 26.0312 26.5 25.5625 26.5H22.3594C21.8906 26.5 21.4219 26.1094 21.4219 25.6406L20.875 15.0156Z" fill="#FD9CBF"/>
</svg>
