<svg width="40" height="40" viewBox="0 0 40 40" fill="none" xmlns="http://www.w3.org/2000/svg">
<path d="M20 0.625C30.625 0.625 39.375 9.375 39.375 20C39.375 30.7031 30.625 39.375 20 39.375C9.29688 39.375 0.625 30.7031 0.625 20C0.625 9.375 9.29688 0.625 20 0.625ZM20 35.625C28.5938 35.625 35.625 28.6719 35.625 20C35.625 11.4062 28.5938 4.375 20 4.375C11.3281 4.375 4.375 11.4062 4.375 20C4.375 28.6719 11.3281 35.625 20 35.625ZM20 9.21875C21.7969 9.21875 23.2812 10.7031 23.2812 12.5C23.2812 14.375 21.7969 15.7812 20 15.7812C18.125 15.7812 16.7188 14.375 16.7188 12.5C16.7188 10.7031 18.125 9.21875 20 9.21875ZM24.375 29.0625C24.375 29.6094 23.9062 30 23.4375 30H16.5625C16.0156 30 15.625 29.6094 15.625 29.0625V27.1875C15.625 26.7188 16.0156 26.25 16.5625 26.25H17.5V21.25H16.5625C16.0156 21.25 15.625 20.8594 15.625 20.3125V18.4375C15.625 17.9688 16.0156 17.5 16.5625 17.5H21.5625C22.0312 17.5 22.5 17.9688 22.5 18.4375V26.25H23.4375C23.9062 26.25 24.375 26.7188 24.375 27.1875V29.0625Z" fill="#FD9CBF"/>
</svg>
