<svg width="18" height="18" viewBox="0 0 18 18" fill="none" xmlns="http://www.w3.org/2000/svg">
<path fill-rule="evenodd" clip-rule="evenodd" d="M2.98889 4.47693C1.89046 4.47693 1 5.36739 1 6.46583V7.16338C1 7.91403 1.60852 8.52256 2.35917 8.52256V8.52256C2.92966 8.52256 3.43944 8.87881 3.63553 9.41454L3.88759 10.1032C4.05975 10.5735 4.03306 11.0936 3.81369 11.5439L3.69809 11.7811C3.46006 12.2697 2.96424 12.5796 2.42082 12.5796V12.5796C1.63612 12.5796 1 13.2157 1 14.0004V15.0111C1 16.1095 1.89046 17 2.98889 17H3.79041C4.44618 17 4.97779 16.4684 4.97779 15.8126V15.8126C4.97779 15.3396 5.25853 14.9117 5.69243 14.7234L6.56464 14.3449C7.15425 14.089 7.83014 14.1269 8.38735 14.4473L8.78224 14.6743C9.16877 14.8966 9.40705 15.3084 9.40705 15.7543V15.7543C9.40705 16.4423 9.96478 17 10.6528 17H11.6053C12.8194 17 13.8036 16.0158 13.8036 14.8017V13.6976C13.8036 13.0802 14.3041 12.5796 14.9216 12.5796V12.5796C15.2501 12.5796 15.562 12.4351 15.7744 12.1845L16.0241 11.8899C16.5988 11.2118 16.6427 10.2311 16.131 9.50443L15.7613 8.9795C15.5596 8.69301 15.2311 8.52256 14.8807 8.52256V8.52256C14.2858 8.52256 13.8036 8.04032 13.8036 7.44545V6.49974C13.8036 5.38258 12.8979 4.47693 11.7807 4.47693H11.001C10.0785 4.47693 9.28851 3.81606 9.12564 2.90807V2.90807C9.04461 2.45635 8.80197 2.04802 8.44467 1.76003V1.76003C7.86983 1.29669 7.07781 1.20284 6.4118 1.52151L5.76905 1.82904C5.28553 2.06039 4.97779 2.5488 4.97779 3.08482V3.08482C4.97779 3.85366 4.35451 4.47693 3.58567 4.47693H2.98889Z" stroke="#FD9CBF" stroke-width="1.8"/>
</svg>
