<svg width="24" height="24" viewBox="0 0 24 24" fill="none" xmlns="http://www.w3.org/2000/svg">
<path d="M16.3555 8.93945C18.1367 10.1641 19.25 12.0566 19.25 14.1719C19.25 14.6914 18.8418 15.0625 18.3594 15.0625H13.0156V18.9219C13.0156 18.959 12.9785 18.9961 12.9785 19.0332L12.3848 20.8145C12.3105 21.0742 11.9023 21.0742 11.8281 20.8145L11.2344 19.0332C11.2344 18.9961 11.2344 18.959 11.2344 18.9219V15.0625H5.89062C5.37109 15.0625 5 14.6914 5 14.1719C5 12.0566 6.07617 10.1641 7.85742 8.93945L8.08008 7.34375H7.07812C6.55859 7.34375 6.1875 6.97266 6.1875 6.45312V2.89062C6.1875 2.4082 6.55859 2 7.07812 2H17.1719C17.6543 2 18.0625 2.4082 18.0625 2.89062V6.45312C18.0625 6.97266 17.6543 7.34375 17.1719 7.34375H16.1328L16.3555 8.93945ZM6.85547 13.2812H17.3574C17.0605 11.8711 16.0215 10.6836 14.7227 10.0527L14.1289 5.5625H16.2812V3.78125H7.96875V5.5625H10.1211L9.52734 10.0527C8.19141 10.6836 7.15234 11.8711 6.85547 13.2812Z" fill="#FD9CBF"/>
</svg>
