<svg width="16" height="20" viewBox="0 0 16 20" fill="none" xmlns="http://www.w3.org/2000/svg">
<path d="M12.2305 7.31445C14.0117 8.53906 15.125 10.4316 15.125 12.5469C15.125 13.0664 14.7168 13.4375 14.2344 13.4375H8.89062V17.2969C8.89062 17.334 8.85352 17.3711 8.85352 17.4082L8.25977 19.1895C8.18555 19.4492 7.77734 19.4492 7.70312 19.1895L7.10938 17.4082C7.10938 17.3711 7.10938 17.334 7.10938 17.2969V13.4375H1.76562C1.24609 13.4375 0.875 13.0664 0.875 12.5469C0.875 10.4316 1.95117 8.53906 3.73242 7.31445L3.95508 5.71875H2.95312C2.43359 5.71875 2.0625 5.34766 2.0625 4.82812V1.26562C2.0625 0.783203 2.43359 0.375 2.95312 0.375H13.0469C13.5293 0.375 13.9375 0.783203 13.9375 1.26562V4.82812C13.9375 5.34766 13.5293 5.71875 13.0469 5.71875H12.0078L12.2305 7.31445ZM2.73047 11.6562H13.2324C12.9355 10.2461 11.8965 9.05859 10.5977 8.42773L10.0039 3.9375H12.1562V2.15625H3.84375V3.9375H5.99609L5.40234 8.42773C4.06641 9.05859 3.02734 10.2461 2.73047 11.6562Z" fill="#2A2A2A"/>
</svg>
