<svg width="22" height="22" viewBox="0 0 22 22" fill="none" xmlns="http://www.w3.org/2000/svg">
<mask id="mask0_17994_336" style="mask-type:alpha" maskUnits="userSpaceOnUse" x="0" y="0" width="22" height="22">
<path d="M0 0H14C18.4183 0 22 3.58172 22 8V22H8C3.58172 22 0 18.4183 0 14V0Z" fill="#D9D9D9"/>
</mask>
<g mask="url(#mask0_17994_336)">
<path d="M13.125 0V0.5H14C14.3325 0.5 14.6599 0.521659 14.9805 0.563477L15.0439 0.0693359C15.7495 0.161307 16.4262 0.344 17.0615 0.607422L16.8711 1.06934C17.4803 1.32199 18.0494 1.65232 18.5654 2.04883L18.8682 1.65332C19.4228 2.07938 19.9195 2.5763 20.3457 3.13086L19.9512 3.43457C20.3477 3.95061 20.678 4.51973 20.9307 5.12891L21.3916 4.9375C21.6551 5.57288 21.8376 6.24948 21.9297 6.95508L21.4365 7.01953C21.4783 7.34012 21.5 7.66755 21.5 8V8.875H22V10.625H21.5V12.375H22V14.125H21.5V15.875H22V17.625H21.5V19.375H22V21.125H21.5V21.5H21.125V22H19.375V21.5H17.625V22H15.875V21.5H14.125V22H12.375V21.5H10.625V22H8.875V21.5H8C7.66755 21.5 7.34012 21.4783 7.01953 21.4365L6.95508 21.9297C6.24948 21.8376 5.57288 21.6551 4.9375 21.3916L5.12891 20.9307C4.51973 20.678 3.95061 20.3477 3.43457 19.9512L3.13086 20.3457C2.5763 19.9195 2.07938 19.4228 1.65332 18.8682L2.04883 18.5654C1.65232 18.0494 1.32199 17.4803 1.06934 16.8711L0.607422 17.0615C0.344 16.4262 0.161307 15.7495 0.0693359 15.0439L0.563477 14.9805C0.521659 14.6599 0.5 14.3325 0.5 14V13.125H0V11.375H0.5V9.625H0V7.875H0.5V6.125H0V4.375H0.5V2.625H0V0.875H0.5V0.5H0.875V0H2.625V0.5H4.375V0H6.125V0.5H7.875V0H9.625V0.5H11.375V0H13.125Z" fill="white" stroke="#767676" stroke-dasharray="2 2"/>
<path d="M0 0L11 11L22 22H0V0Z" fill="#FD9CBF"/>
</g>
</svg>
