<svg width="22" height="23" viewBox="0 0 22 23" fill="none" xmlns="http://www.w3.org/2000/svg">
<mask id="mask0_17884_150" style="mask-type:alpha" maskUnits="userSpaceOnUse" x="0" y="0" width="22" height="23">
<path d="M0 0.980469H14C18.4183 0.980469 22 4.56219 22 8.98047V22.9805H8C3.58172 22.9805 0 19.3987 0 14.9805V0.980469Z" fill="#D9D9D9"/>
</mask>
<g mask="url(#mask0_17884_150)">
<path d="M13.125 0.980469V1.48047H14C14.3325 1.48047 14.6599 1.50213 14.9805 1.54395L15.0439 1.0498C15.7495 1.14178 16.4262 1.32447 17.0615 1.58789L16.8711 2.0498C17.4803 2.30246 18.0494 2.63278 18.5654 3.0293L18.8682 2.63379C19.4228 3.05985 19.9195 3.55677 20.3457 4.11133L19.9512 4.41504C20.3477 4.93108 20.678 5.5002 20.9307 6.10938L21.3916 5.91797C21.6551 6.55335 21.8376 7.22994 21.9297 7.93555L21.4365 8C21.4783 8.32059 21.5 8.64801 21.5 8.98047V9.85547H22V11.6055H21.5V13.3555H22V15.1055H21.5V16.8555H22V18.6055H21.5V20.3555H22V22.1055H21.5V22.4805H21.125V22.9805H19.375V22.4805H17.625V22.9805H15.875V22.4805H14.125V22.9805H12.375V22.4805H10.625V22.9805H8.875V22.4805H8C7.66755 22.4805 7.34012 22.4588 7.01953 22.417L6.95508 22.9102C6.24948 22.8181 5.57288 22.6356 4.9375 22.3721L5.12891 21.9111C4.51973 21.6585 3.95061 21.3282 3.43457 20.9316L3.13086 21.3262C2.5763 20.9 2.07938 20.4033 1.65332 19.8486L2.04883 19.5459C1.65232 19.0299 1.32199 18.4607 1.06934 17.8516L0.607422 18.042C0.344 17.4066 0.161307 16.73 0.0693359 16.0244L0.563477 15.9609C0.521659 15.6404 0.5 15.3129 0.5 14.9805V14.1055H0V12.3555H0.5V10.6055H0V8.85547H0.5V7.10547H0V5.35547H0.5V3.60547H0V1.85547H0.5V1.48047H0.875V0.980469H2.625V1.48047H4.375V0.980469H6.125V1.48047H7.875V0.980469H9.625V1.48047H11.375V0.980469H13.125Z" fill="#1F1F1F" stroke="#767676" stroke-dasharray="2 2"/>
<path d="M0 0.980469L11 11.9805L22 22.9805H0V0.980469Z" fill="#FD9CBF"/>
</g>
</svg>
